M48
;DRILL file {KiCad 4.0.6} date Sat May 20 01:56:13 2017
;FORMAT={-:-/ absolute / inch / decimal}
FMAT,2
INCH,TZ
T1C0.024
T2C0.028
T3C0.031
T4C0.035
T5C0.039
T6C0.059
%
G90
G05
M72
T1
X4.8016Y-5.2756
X4.8516Y-5.2756
X4.9016Y-5.2756
X4.912Y-2.3465
X4.9632Y-2.3465
X5.0132Y-2.3465
X5.0644Y-2.3465
X5.0772Y-5.2756
X5.1272Y-5.2756
X5.1772Y-5.2756
T2
X5.315Y-1.5748
X5.315Y-1.6535
T3
X4.685Y-4.8953
X4.685Y-5.2953
X4.685Y-5.3937
X4.685Y-5.7937
X4.8228Y-5.
X4.9016Y-5.
X5.0827Y-5.
X5.1614Y-5.
X5.2362Y-2.3228
X5.2362Y-2.4016
X5.315Y-4.8953
X5.315Y-5.2953
X5.315Y-5.3937
X5.315Y-5.7937
T4
X4.9165Y-2.1654
X5.2165Y-2.1654
T5
X4.7047Y-1.9724
X4.7244Y-2.185
X4.7244Y-2.2835
X4.7244Y-2.3819
X4.9016Y-5.5512
X5.Y-5.5512
X5.0984Y-5.5512
X5.2953Y-1.9724
T6
X4.9508Y-2.5197G85X5.0492Y-2.5197
G05
X4.9508Y-4.8031G85X5.0492Y-4.8031
G05
T0
M30
