G04 #@! TF.FileFunction,Soldermask,Top*
%FSLAX46Y46*%
G04 Gerber Fmt 4.6, Leading zero omitted, Abs format (unit mm)*
G04 Created by KiCad (PCBNEW 4.0.6) date Sat May 20 01:56:05 2017*
%MOMM*%
%LPD*%
G01*
G04 APERTURE LIST*
%ADD10C,0.100000*%
%ADD11O,6.400000X2.900000*%
%ADD12R,2.000000X2.000000*%
%ADD13C,2.000000*%
%ADD14R,2.200000X2.200000*%
%ADD15O,2.200000X2.200000*%
%ADD16C,2.400000*%
%ADD17O,1.299160X1.901140*%
%ADD18R,1.299160X1.901140*%
%ADD19O,2.000000X2.000000*%
%ADD20R,2.100000X1.600000*%
%ADD21O,2.100000X1.600000*%
%ADD22R,3.400000X2.200000*%
%ADD23C,5.400000*%
%ADD24C,1.400000*%
G04 APERTURE END LIST*
D10*
D11*
X127000000Y-64000000D03*
X127000000Y-122000000D03*
D12*
X133000000Y-59000000D03*
D13*
X133000000Y-61000000D03*
D12*
X122500000Y-127000000D03*
D13*
X124500000Y-127000000D03*
D12*
X129100000Y-127000000D03*
D13*
X131100000Y-127000000D03*
D14*
X132500000Y-55000000D03*
D15*
X124880000Y-55000000D03*
D16*
X134500000Y-50100000D03*
X119500000Y-50100000D03*
D17*
X130230000Y-134000000D03*
X128960000Y-134000000D03*
D18*
X131500000Y-134000000D03*
D17*
X123230000Y-134000000D03*
X121960000Y-134000000D03*
D18*
X124500000Y-134000000D03*
D13*
X135000000Y-134500000D03*
D19*
X135000000Y-124340000D03*
D13*
X119000000Y-134500000D03*
D19*
X119000000Y-124340000D03*
D16*
X120000000Y-60500000D03*
X120000000Y-58000000D03*
X120000000Y-55500000D03*
X129500000Y-141000000D03*
X127000000Y-141000000D03*
X124500000Y-141000000D03*
D20*
X135000000Y-40000000D03*
D21*
X135000000Y-42000000D03*
D13*
X119000000Y-137000000D03*
D19*
X119000000Y-147160000D03*
D13*
X135000000Y-137000000D03*
D19*
X135000000Y-147160000D03*
D22*
X133500000Y-150000000D03*
X120500000Y-152000000D03*
D23*
X127000000Y-151000000D03*
D24*
X128635000Y-59600000D03*
X127335000Y-59600000D03*
X126065000Y-59600000D03*
X124765000Y-59600000D03*
M02*
