G04 #@! TF.FileFunction,Copper,L2,Bot,Signal*
%FSLAX46Y46*%
G04 Gerber Fmt 4.6, Leading zero omitted, Abs format (unit mm)*
G04 Created by KiCad (PCBNEW 4.0.6) date Sat May 20 01:56:05 2017*
%MOMM*%
%LPD*%
G01*
G04 APERTURE LIST*
%ADD10C,0.100000*%
%ADD11O,6.000000X2.500000*%
%ADD12R,1.600000X1.600000*%
%ADD13C,1.600000*%
%ADD14R,1.800000X1.800000*%
%ADD15O,1.800000X1.800000*%
%ADD16C,2.000000*%
%ADD17O,0.899160X1.501140*%
%ADD18R,0.899160X1.501140*%
%ADD19O,1.600000X1.600000*%
%ADD20R,1.700000X1.200000*%
%ADD21O,1.700000X1.200000*%
%ADD22R,3.000000X1.800000*%
%ADD23C,5.000000*%
%ADD24C,1.000000*%
%ADD25C,0.250000*%
%ADD26C,0.254000*%
G04 APERTURE END LIST*
D10*
D11*
X127000000Y-64000000D03*
X127000000Y-122000000D03*
D12*
X133000000Y-59000000D03*
D13*
X133000000Y-61000000D03*
D12*
X122500000Y-127000000D03*
D13*
X124500000Y-127000000D03*
D12*
X129100000Y-127000000D03*
D13*
X131100000Y-127000000D03*
D14*
X132500000Y-55000000D03*
D15*
X124880000Y-55000000D03*
D16*
X134500000Y-50100000D03*
X119500000Y-50100000D03*
D17*
X130230000Y-134000000D03*
X128960000Y-134000000D03*
D18*
X131500000Y-134000000D03*
D17*
X123230000Y-134000000D03*
X121960000Y-134000000D03*
D18*
X124500000Y-134000000D03*
D13*
X135000000Y-134500000D03*
D19*
X135000000Y-124340000D03*
D13*
X119000000Y-134500000D03*
D19*
X119000000Y-124340000D03*
D16*
X120000000Y-60500000D03*
X120000000Y-58000000D03*
X120000000Y-55500000D03*
X129500000Y-141000000D03*
X127000000Y-141000000D03*
X124500000Y-141000000D03*
D20*
X135000000Y-40000000D03*
D21*
X135000000Y-42000000D03*
D13*
X119000000Y-137000000D03*
D19*
X119000000Y-147160000D03*
D13*
X135000000Y-137000000D03*
D19*
X135000000Y-147160000D03*
D22*
X133500000Y-152000000D03*
X120500000Y-150000000D03*
D23*
X127000000Y-151000000D03*
D24*
X128635000Y-59600000D03*
X127335000Y-59600000D03*
X126065000Y-59600000D03*
X124765000Y-59600000D03*
D25*
X127335000Y-59600000D02*
X127335000Y-53465000D01*
X130700000Y-50100000D02*
X134500000Y-50100000D01*
X127335000Y-53465000D02*
X130700000Y-50100000D01*
X126065000Y-59600000D02*
X126065000Y-60565000D01*
X126500000Y-61000000D02*
X133000000Y-61000000D01*
X126065000Y-60565000D02*
X126500000Y-61000000D01*
X126065000Y-59600000D02*
X126065000Y-59835000D01*
X135000000Y-124340000D02*
X135000000Y-125800000D01*
X135800000Y-152000000D02*
X133500000Y-152000000D01*
X136200000Y-151600000D02*
X135800000Y-152000000D01*
X136200000Y-127000000D02*
X136200000Y-151600000D01*
X135000000Y-125800000D02*
X136200000Y-127000000D01*
X119000000Y-124340000D02*
X119000000Y-122600000D01*
X119600000Y-122000000D02*
X127000000Y-122000000D01*
X119000000Y-122600000D02*
X119600000Y-122000000D01*
X133000000Y-61000000D02*
X133000000Y-120000000D01*
X133000000Y-120000000D02*
X131000000Y-122000000D01*
X131000000Y-122000000D02*
X127000000Y-122000000D01*
X127000000Y-122000000D02*
X133000000Y-122000000D01*
X133000000Y-122000000D02*
X134800000Y-123800000D01*
X134800000Y-123800000D02*
X135000000Y-124340000D01*
X124500000Y-134000000D02*
X124500000Y-135500000D01*
X131500000Y-135500000D02*
X131500000Y-134000000D01*
X130000000Y-137000000D02*
X131500000Y-135500000D01*
X126000000Y-137000000D02*
X130000000Y-137000000D01*
X124500000Y-135500000D02*
X126000000Y-137000000D01*
X128960000Y-134000000D02*
X128960000Y-133460000D01*
X128960000Y-133460000D02*
X126000000Y-130500000D01*
X126000000Y-130500000D02*
X123000000Y-130500000D01*
X123000000Y-130500000D02*
X122500000Y-130000000D01*
X122500000Y-130000000D02*
X122500000Y-127000000D01*
X135000000Y-137000000D02*
X133800000Y-137000000D01*
X132800000Y-138000000D02*
X125500000Y-138000000D01*
X133800000Y-137000000D02*
X132800000Y-138000000D01*
X121960000Y-134000000D02*
X121960000Y-136460000D01*
X127000000Y-139500000D02*
X127000000Y-141000000D01*
X125500000Y-138000000D02*
X127000000Y-139500000D01*
X123500000Y-138000000D02*
X125500000Y-138000000D01*
X121960000Y-136460000D02*
X123500000Y-138000000D01*
X121960000Y-134000000D02*
X121960000Y-130960000D01*
X129100000Y-125600000D02*
X129100000Y-127000000D01*
X127500000Y-124000000D02*
X129100000Y-125600000D01*
X121000000Y-124000000D02*
X127500000Y-124000000D01*
X120500000Y-124500000D02*
X121000000Y-124000000D01*
X120500000Y-129500000D02*
X120500000Y-124500000D01*
X121960000Y-130960000D02*
X120500000Y-129500000D01*
X124880000Y-55000000D02*
X124880000Y-56120000D01*
X122500000Y-60500000D02*
X120000000Y-60500000D01*
X123000000Y-60000000D02*
X122500000Y-60500000D01*
X123000000Y-58000000D02*
X123000000Y-60000000D01*
X124880000Y-56120000D02*
X123000000Y-58000000D01*
X120500000Y-150000000D02*
X121400000Y-150000000D01*
X121400000Y-150000000D02*
X124240000Y-147160000D01*
X124240000Y-147160000D02*
X135000000Y-147160000D01*
X120500000Y-149600000D02*
X120500000Y-150000000D01*
D26*
G36*
X136290000Y-153930069D02*
X136178953Y-154488340D01*
X135902333Y-154902331D01*
X135488338Y-155178954D01*
X134930069Y-155290000D01*
X119069931Y-155290000D01*
X118511660Y-155178953D01*
X118097669Y-154902333D01*
X117821046Y-154488338D01*
X117710000Y-153930069D01*
X117710000Y-147790793D01*
X117985302Y-148202811D01*
X118450849Y-148513880D01*
X118670348Y-148557541D01*
X118548559Y-148635910D01*
X118403569Y-148848110D01*
X118352560Y-149100000D01*
X118352560Y-150900000D01*
X118396838Y-151135317D01*
X118535910Y-151351441D01*
X118748110Y-151496431D01*
X119000000Y-151547440D01*
X122000000Y-151547440D01*
X122235317Y-151503162D01*
X122451441Y-151364090D01*
X122596431Y-151151890D01*
X122647440Y-150900000D01*
X122647440Y-149827362D01*
X124554802Y-147920000D01*
X126244722Y-147920000D01*
X125226485Y-148340727D01*
X124343826Y-149221847D01*
X123865546Y-150373674D01*
X123864457Y-151620854D01*
X124340727Y-152773515D01*
X125221847Y-153656174D01*
X126373674Y-154134454D01*
X127620854Y-154135543D01*
X128773515Y-153659273D01*
X129656174Y-152778153D01*
X129860637Y-152285750D01*
X131365000Y-152285750D01*
X131365000Y-153026310D01*
X131461673Y-153259699D01*
X131640302Y-153438327D01*
X131873691Y-153535000D01*
X133214250Y-153535000D01*
X133373000Y-153376250D01*
X133373000Y-152127000D01*
X133627000Y-152127000D01*
X133627000Y-153376250D01*
X133785750Y-153535000D01*
X135126309Y-153535000D01*
X135359698Y-153438327D01*
X135538327Y-153259699D01*
X135635000Y-153026310D01*
X135635000Y-152285750D01*
X135476250Y-152127000D01*
X133627000Y-152127000D01*
X133373000Y-152127000D01*
X131523750Y-152127000D01*
X131365000Y-152285750D01*
X129860637Y-152285750D01*
X130134454Y-151626326D01*
X130135023Y-150973690D01*
X131365000Y-150973690D01*
X131365000Y-151714250D01*
X131523750Y-151873000D01*
X133373000Y-151873000D01*
X133373000Y-150623750D01*
X133627000Y-150623750D01*
X133627000Y-151873000D01*
X135476250Y-151873000D01*
X135635000Y-151714250D01*
X135635000Y-150973690D01*
X135538327Y-150740301D01*
X135359698Y-150561673D01*
X135126309Y-150465000D01*
X133785750Y-150465000D01*
X133627000Y-150623750D01*
X133373000Y-150623750D01*
X133214250Y-150465000D01*
X131873691Y-150465000D01*
X131640302Y-150561673D01*
X131461673Y-150740301D01*
X131365000Y-150973690D01*
X130135023Y-150973690D01*
X130135543Y-150379146D01*
X129659273Y-149226485D01*
X128778153Y-148343826D01*
X127757466Y-147920000D01*
X133796333Y-147920000D01*
X133985302Y-148202811D01*
X134450849Y-148513880D01*
X135000000Y-148623113D01*
X135549151Y-148513880D01*
X136014698Y-148202811D01*
X136290000Y-147790793D01*
X136290000Y-153930069D01*
X136290000Y-153930069D01*
G37*
X136290000Y-153930069D02*
X136178953Y-154488340D01*
X135902333Y-154902331D01*
X135488338Y-155178954D01*
X134930069Y-155290000D01*
X119069931Y-155290000D01*
X118511660Y-155178953D01*
X118097669Y-154902333D01*
X117821046Y-154488338D01*
X117710000Y-153930069D01*
X117710000Y-147790793D01*
X117985302Y-148202811D01*
X118450849Y-148513880D01*
X118670348Y-148557541D01*
X118548559Y-148635910D01*
X118403569Y-148848110D01*
X118352560Y-149100000D01*
X118352560Y-150900000D01*
X118396838Y-151135317D01*
X118535910Y-151351441D01*
X118748110Y-151496431D01*
X119000000Y-151547440D01*
X122000000Y-151547440D01*
X122235317Y-151503162D01*
X122451441Y-151364090D01*
X122596431Y-151151890D01*
X122647440Y-150900000D01*
X122647440Y-149827362D01*
X124554802Y-147920000D01*
X126244722Y-147920000D01*
X125226485Y-148340727D01*
X124343826Y-149221847D01*
X123865546Y-150373674D01*
X123864457Y-151620854D01*
X124340727Y-152773515D01*
X125221847Y-153656174D01*
X126373674Y-154134454D01*
X127620854Y-154135543D01*
X128773515Y-153659273D01*
X129656174Y-152778153D01*
X129860637Y-152285750D01*
X131365000Y-152285750D01*
X131365000Y-153026310D01*
X131461673Y-153259699D01*
X131640302Y-153438327D01*
X131873691Y-153535000D01*
X133214250Y-153535000D01*
X133373000Y-153376250D01*
X133373000Y-152127000D01*
X133627000Y-152127000D01*
X133627000Y-153376250D01*
X133785750Y-153535000D01*
X135126309Y-153535000D01*
X135359698Y-153438327D01*
X135538327Y-153259699D01*
X135635000Y-153026310D01*
X135635000Y-152285750D01*
X135476250Y-152127000D01*
X133627000Y-152127000D01*
X133373000Y-152127000D01*
X131523750Y-152127000D01*
X131365000Y-152285750D01*
X129860637Y-152285750D01*
X130134454Y-151626326D01*
X130135023Y-150973690D01*
X131365000Y-150973690D01*
X131365000Y-151714250D01*
X131523750Y-151873000D01*
X133373000Y-151873000D01*
X133373000Y-150623750D01*
X133627000Y-150623750D01*
X133627000Y-151873000D01*
X135476250Y-151873000D01*
X135635000Y-151714250D01*
X135635000Y-150973690D01*
X135538327Y-150740301D01*
X135359698Y-150561673D01*
X135126309Y-150465000D01*
X133785750Y-150465000D01*
X133627000Y-150623750D01*
X133373000Y-150623750D01*
X133214250Y-150465000D01*
X131873691Y-150465000D01*
X131640302Y-150561673D01*
X131461673Y-150740301D01*
X131365000Y-150973690D01*
X130135023Y-150973690D01*
X130135543Y-150379146D01*
X129659273Y-149226485D01*
X128778153Y-148343826D01*
X127757466Y-147920000D01*
X133796333Y-147920000D01*
X133985302Y-148202811D01*
X134450849Y-148513880D01*
X135000000Y-148623113D01*
X135549151Y-148513880D01*
X136014698Y-148202811D01*
X136290000Y-147790793D01*
X136290000Y-153930069D01*
G36*
X135488338Y-35821046D02*
X135902333Y-36097669D01*
X136178953Y-36511660D01*
X136290000Y-37069931D01*
X136290000Y-38932099D01*
X136101890Y-38803569D01*
X135850000Y-38752560D01*
X134150000Y-38752560D01*
X133914683Y-38796838D01*
X133698559Y-38935910D01*
X133553569Y-39148110D01*
X133502560Y-39400000D01*
X133502560Y-40600000D01*
X133546838Y-40835317D01*
X133685910Y-41051441D01*
X133838309Y-41155571D01*
X133818067Y-41170875D01*
X133571714Y-41590624D01*
X133556538Y-41682391D01*
X133681269Y-41873000D01*
X134873000Y-41873000D01*
X134873000Y-41853000D01*
X135127000Y-41853000D01*
X135127000Y-41873000D01*
X135147000Y-41873000D01*
X135147000Y-42127000D01*
X135127000Y-42127000D01*
X135127000Y-43082547D01*
X135322696Y-43245256D01*
X135793701Y-43122647D01*
X136181933Y-42829125D01*
X136290000Y-42644995D01*
X136290000Y-123775625D01*
X136152389Y-123484866D01*
X135737423Y-123108959D01*
X135349039Y-122948096D01*
X135127000Y-123070085D01*
X135127000Y-124213000D01*
X135147000Y-124213000D01*
X135147000Y-124467000D01*
X135127000Y-124467000D01*
X135127000Y-125609915D01*
X135349039Y-125731904D01*
X135737423Y-125571041D01*
X136152389Y-125195134D01*
X136290000Y-124904375D01*
X136290000Y-133864286D01*
X136217243Y-133688200D01*
X135813923Y-133284176D01*
X135286691Y-133065250D01*
X134715813Y-133064752D01*
X134188200Y-133282757D01*
X133784176Y-133686077D01*
X133565250Y-134213309D01*
X133564752Y-134784187D01*
X133782757Y-135311800D01*
X134186077Y-135715824D01*
X134267931Y-135749813D01*
X134188200Y-135782757D01*
X133784176Y-136186077D01*
X133758345Y-136248286D01*
X133509161Y-136297852D01*
X133262599Y-136462599D01*
X132485198Y-137240000D01*
X130834802Y-137240000D01*
X132037401Y-136037401D01*
X132202148Y-135790840D01*
X132260000Y-135500000D01*
X132260000Y-135305405D01*
X132401021Y-135214660D01*
X132546011Y-135002460D01*
X132597020Y-134750570D01*
X132597020Y-133249430D01*
X132552742Y-133014113D01*
X132413670Y-132797989D01*
X132201470Y-132652999D01*
X131949580Y-132601990D01*
X131050420Y-132601990D01*
X130815103Y-132646268D01*
X130710502Y-132713577D01*
X130645051Y-132669844D01*
X130230000Y-132587285D01*
X129814949Y-132669844D01*
X129595000Y-132816809D01*
X129375051Y-132669844D01*
X129212266Y-132637464D01*
X126537401Y-129962599D01*
X126290839Y-129797852D01*
X126000000Y-129740000D01*
X123314802Y-129740000D01*
X123260000Y-129685198D01*
X123260000Y-128447440D01*
X123300000Y-128447440D01*
X123535317Y-128403162D01*
X123751441Y-128264090D01*
X123762685Y-128247634D01*
X124213309Y-128434750D01*
X124784187Y-128435248D01*
X125311800Y-128217243D01*
X125715824Y-127813923D01*
X125934750Y-127286691D01*
X125935248Y-126715813D01*
X125717243Y-126188200D01*
X125313923Y-125784176D01*
X124786691Y-125565250D01*
X124215813Y-125564752D01*
X123765534Y-125750803D01*
X123764090Y-125748559D01*
X123551890Y-125603569D01*
X123300000Y-125552560D01*
X121700000Y-125552560D01*
X121464683Y-125596838D01*
X121260000Y-125728548D01*
X121260000Y-124814802D01*
X121314802Y-124760000D01*
X127185198Y-124760000D01*
X128038734Y-125613536D01*
X127848559Y-125735910D01*
X127703569Y-125948110D01*
X127652560Y-126200000D01*
X127652560Y-127800000D01*
X127696838Y-128035317D01*
X127835910Y-128251441D01*
X128048110Y-128396431D01*
X128300000Y-128447440D01*
X129900000Y-128447440D01*
X130135317Y-128403162D01*
X130351441Y-128264090D01*
X130362685Y-128247634D01*
X130813309Y-128434750D01*
X131384187Y-128435248D01*
X131911800Y-128217243D01*
X132315824Y-127813923D01*
X132534750Y-127286691D01*
X132535248Y-126715813D01*
X132317243Y-126188200D01*
X131913923Y-125784176D01*
X131386691Y-125565250D01*
X130815813Y-125564752D01*
X130365534Y-125750803D01*
X130364090Y-125748559D01*
X130151890Y-125603569D01*
X129900000Y-125552560D01*
X129850564Y-125552560D01*
X129802148Y-125309161D01*
X129637401Y-125062599D01*
X129263843Y-124689041D01*
X133608086Y-124689041D01*
X133847611Y-125195134D01*
X134262577Y-125571041D01*
X134650961Y-125731904D01*
X134873000Y-125609915D01*
X134873000Y-124467000D01*
X133729371Y-124467000D01*
X133608086Y-124689041D01*
X129263843Y-124689041D01*
X128565761Y-123990959D01*
X133608086Y-123990959D01*
X133729371Y-124213000D01*
X134873000Y-124213000D01*
X134873000Y-123070085D01*
X134650961Y-122948096D01*
X134262577Y-123108959D01*
X133847611Y-123484866D01*
X133608086Y-123990959D01*
X128565761Y-123990959D01*
X128459802Y-123885000D01*
X128877000Y-123885000D01*
X129588691Y-123692912D01*
X130172699Y-123243094D01*
X130540114Y-122604026D01*
X130587695Y-122419645D01*
X130471572Y-122127000D01*
X127127000Y-122127000D01*
X127127000Y-122147000D01*
X126873000Y-122147000D01*
X126873000Y-122127000D01*
X123528428Y-122127000D01*
X123412305Y-122419645D01*
X123459886Y-122604026D01*
X123825522Y-123240000D01*
X121000000Y-123240000D01*
X120709161Y-123297852D01*
X120462599Y-123462599D01*
X120244889Y-123680309D01*
X120152389Y-123484866D01*
X119737423Y-123108959D01*
X119349039Y-122948096D01*
X119127000Y-123070085D01*
X119127000Y-124213000D01*
X119147000Y-124213000D01*
X119147000Y-124467000D01*
X119127000Y-124467000D01*
X119127000Y-125609915D01*
X119349039Y-125731904D01*
X119737423Y-125571041D01*
X119740000Y-125568707D01*
X119740000Y-129500000D01*
X119797852Y-129790839D01*
X119962599Y-130037401D01*
X121200000Y-131274802D01*
X121200000Y-132900331D01*
X121193086Y-132904951D01*
X120957979Y-133256814D01*
X120875420Y-133671865D01*
X120875420Y-134328135D01*
X120957979Y-134743186D01*
X121193086Y-135095049D01*
X121200000Y-135099669D01*
X121200000Y-136460000D01*
X121257852Y-136750839D01*
X121422599Y-136997401D01*
X122962599Y-138537401D01*
X123209161Y-138702148D01*
X123500000Y-138760000D01*
X125185198Y-138760000D01*
X126056664Y-139631466D01*
X125749836Y-139937759D01*
X125427363Y-139614722D01*
X124826648Y-139365284D01*
X124176205Y-139364716D01*
X123575057Y-139613106D01*
X123114722Y-140072637D01*
X122865284Y-140673352D01*
X122864716Y-141323795D01*
X123113106Y-141924943D01*
X123572637Y-142385278D01*
X124173352Y-142634716D01*
X124823795Y-142635284D01*
X125424943Y-142386894D01*
X125750164Y-142062241D01*
X126072637Y-142385278D01*
X126673352Y-142634716D01*
X127323795Y-142635284D01*
X127924943Y-142386894D01*
X128250164Y-142062241D01*
X128572637Y-142385278D01*
X129173352Y-142634716D01*
X129823795Y-142635284D01*
X130424943Y-142386894D01*
X130885278Y-141927363D01*
X131134716Y-141326648D01*
X131135284Y-140676205D01*
X130886894Y-140075057D01*
X130427363Y-139614722D01*
X129826648Y-139365284D01*
X129176205Y-139364716D01*
X128575057Y-139613106D01*
X128249836Y-139937759D01*
X127927363Y-139614722D01*
X127760000Y-139545227D01*
X127760000Y-139500000D01*
X127702148Y-139209161D01*
X127702148Y-139209160D01*
X127537401Y-138962599D01*
X127334802Y-138760000D01*
X132800000Y-138760000D01*
X133090839Y-138702148D01*
X133337401Y-138537401D01*
X133922757Y-137952045D01*
X134186077Y-138215824D01*
X134713309Y-138434750D01*
X135284187Y-138435248D01*
X135811800Y-138217243D01*
X136215824Y-137813923D01*
X136290000Y-137635287D01*
X136290000Y-146529207D01*
X136014698Y-146117189D01*
X135549151Y-145806120D01*
X135000000Y-145696887D01*
X134450849Y-145806120D01*
X133985302Y-146117189D01*
X133796333Y-146400000D01*
X124240000Y-146400000D01*
X123949161Y-146457852D01*
X123702599Y-146622599D01*
X121872638Y-148452560D01*
X119640923Y-148452560D01*
X120014698Y-148202811D01*
X120325767Y-147737264D01*
X120435000Y-147188113D01*
X120435000Y-147131887D01*
X120325767Y-146582736D01*
X120014698Y-146117189D01*
X119549151Y-145806120D01*
X119000000Y-145696887D01*
X118450849Y-145806120D01*
X117985302Y-146117189D01*
X117710000Y-146529207D01*
X117710000Y-137635714D01*
X117782757Y-137811800D01*
X118186077Y-138215824D01*
X118713309Y-138434750D01*
X119284187Y-138435248D01*
X119811800Y-138217243D01*
X120215824Y-137813923D01*
X120434750Y-137286691D01*
X120435248Y-136715813D01*
X120217243Y-136188200D01*
X119813923Y-135784176D01*
X119732069Y-135750187D01*
X119811800Y-135717243D01*
X120215824Y-135313923D01*
X120434750Y-134786691D01*
X120435248Y-134215813D01*
X120217243Y-133688200D01*
X119813923Y-133284176D01*
X119286691Y-133065250D01*
X118715813Y-133064752D01*
X118188200Y-133282757D01*
X117784176Y-133686077D01*
X117710000Y-133864713D01*
X117710000Y-124904375D01*
X117847611Y-125195134D01*
X118262577Y-125571041D01*
X118650961Y-125731904D01*
X118873000Y-125609915D01*
X118873000Y-124467000D01*
X118853000Y-124467000D01*
X118853000Y-124213000D01*
X118873000Y-124213000D01*
X118873000Y-123070085D01*
X118650961Y-122948096D01*
X118262577Y-123108959D01*
X117847611Y-123484866D01*
X117710000Y-123775625D01*
X117710000Y-121580355D01*
X123412305Y-121580355D01*
X123528428Y-121873000D01*
X126873000Y-121873000D01*
X126873000Y-120115000D01*
X127127000Y-120115000D01*
X127127000Y-121873000D01*
X130471572Y-121873000D01*
X130587695Y-121580355D01*
X130540114Y-121395974D01*
X130172699Y-120756906D01*
X129588691Y-120307088D01*
X128877000Y-120115000D01*
X127127000Y-120115000D01*
X126873000Y-120115000D01*
X125123000Y-120115000D01*
X124411309Y-120307088D01*
X123827301Y-120756906D01*
X123459886Y-121395974D01*
X123412305Y-121580355D01*
X117710000Y-121580355D01*
X117710000Y-64000000D01*
X123293786Y-64000000D01*
X123437273Y-64721358D01*
X123845890Y-65332896D01*
X124457428Y-65741513D01*
X125178786Y-65885000D01*
X128821214Y-65885000D01*
X129542572Y-65741513D01*
X130154110Y-65332896D01*
X130562727Y-64721358D01*
X130706214Y-64000000D01*
X130562727Y-63278642D01*
X130154110Y-62667104D01*
X129542572Y-62258487D01*
X128821214Y-62115000D01*
X125178786Y-62115000D01*
X124457428Y-62258487D01*
X123845890Y-62667104D01*
X123437273Y-63278642D01*
X123293786Y-64000000D01*
X117710000Y-64000000D01*
X117710000Y-55823795D01*
X118364716Y-55823795D01*
X118613106Y-56424943D01*
X118937759Y-56750164D01*
X118614722Y-57072637D01*
X118365284Y-57673352D01*
X118364716Y-58323795D01*
X118613106Y-58924943D01*
X118937759Y-59250164D01*
X118614722Y-59572637D01*
X118365284Y-60173352D01*
X118364716Y-60823795D01*
X118613106Y-61424943D01*
X119072637Y-61885278D01*
X119673352Y-62134716D01*
X120323795Y-62135284D01*
X120632462Y-62007745D01*
X132171861Y-62007745D01*
X132245995Y-62253864D01*
X132783223Y-62446965D01*
X133353454Y-62419778D01*
X133754005Y-62253864D01*
X133828139Y-62007745D01*
X133000000Y-61179605D01*
X132171861Y-62007745D01*
X120632462Y-62007745D01*
X120924943Y-61886894D01*
X121385278Y-61427363D01*
X121454773Y-61260000D01*
X122500000Y-61260000D01*
X122790839Y-61202148D01*
X123037401Y-61037401D01*
X123537401Y-60537401D01*
X123702148Y-60290839D01*
X123741218Y-60094420D01*
X123802233Y-60242086D01*
X124121235Y-60561645D01*
X124538244Y-60734803D01*
X124989775Y-60735197D01*
X125407086Y-60562767D01*
X125472962Y-60497006D01*
X125491648Y-60605217D01*
X125919972Y-60748112D01*
X126370375Y-60716217D01*
X126638352Y-60605217D01*
X126652566Y-60522908D01*
X126691235Y-60561645D01*
X127108244Y-60734803D01*
X127559775Y-60735197D01*
X127977086Y-60562767D01*
X127984734Y-60555132D01*
X127991235Y-60561645D01*
X128408244Y-60734803D01*
X128859775Y-60735197D01*
X129277086Y-60562767D01*
X129596645Y-60243765D01*
X129769803Y-59826756D01*
X129770197Y-59375225D01*
X129597767Y-58957914D01*
X129278765Y-58638355D01*
X128861756Y-58465197D01*
X128410225Y-58464803D01*
X128095000Y-58595052D01*
X128095000Y-58200000D01*
X131552560Y-58200000D01*
X131552560Y-59800000D01*
X131596838Y-60035317D01*
X131735910Y-60251441D01*
X131742548Y-60255977D01*
X131553035Y-60783223D01*
X131580222Y-61353454D01*
X131746136Y-61754005D01*
X131992255Y-61828139D01*
X132820395Y-61000000D01*
X132806252Y-60985858D01*
X132985858Y-60806253D01*
X133000000Y-60820395D01*
X133014143Y-60806253D01*
X133193748Y-60985858D01*
X133179605Y-61000000D01*
X134007745Y-61828139D01*
X134253864Y-61754005D01*
X134446965Y-61216777D01*
X134419778Y-60646546D01*
X134257616Y-60255053D01*
X134396431Y-60051890D01*
X134447440Y-59800000D01*
X134447440Y-58200000D01*
X134403162Y-57964683D01*
X134264090Y-57748559D01*
X134051890Y-57603569D01*
X133800000Y-57552560D01*
X132200000Y-57552560D01*
X131964683Y-57596838D01*
X131748559Y-57735910D01*
X131603569Y-57948110D01*
X131552560Y-58200000D01*
X128095000Y-58200000D01*
X128095000Y-54100000D01*
X130952560Y-54100000D01*
X130952560Y-55900000D01*
X130996838Y-56135317D01*
X131135910Y-56351441D01*
X131348110Y-56496431D01*
X131600000Y-56547440D01*
X133400000Y-56547440D01*
X133635317Y-56503162D01*
X133851441Y-56364090D01*
X133996431Y-56151890D01*
X134047440Y-55900000D01*
X134047440Y-54100000D01*
X134003162Y-53864683D01*
X133864090Y-53648559D01*
X133651890Y-53503569D01*
X133400000Y-53452560D01*
X131600000Y-53452560D01*
X131364683Y-53496838D01*
X131148559Y-53635910D01*
X131003569Y-53848110D01*
X130952560Y-54100000D01*
X128095000Y-54100000D01*
X128095000Y-53779802D01*
X131014802Y-50860000D01*
X133044953Y-50860000D01*
X133113106Y-51024943D01*
X133572637Y-51485278D01*
X134173352Y-51734716D01*
X134823795Y-51735284D01*
X135424943Y-51486894D01*
X135885278Y-51027363D01*
X136134716Y-50426648D01*
X136135284Y-49776205D01*
X135886894Y-49175057D01*
X135427363Y-48714722D01*
X134826648Y-48465284D01*
X134176205Y-48464716D01*
X133575057Y-48713106D01*
X133114722Y-49172637D01*
X133045227Y-49340000D01*
X130700000Y-49340000D01*
X130409161Y-49397852D01*
X130162599Y-49562599D01*
X126797599Y-52927599D01*
X126632852Y-53174161D01*
X126575000Y-53465000D01*
X126575000Y-58573648D01*
X126210028Y-58451888D01*
X125759625Y-58483783D01*
X125491648Y-58594783D01*
X125473010Y-58702712D01*
X125408765Y-58638355D01*
X124991756Y-58465197D01*
X124540225Y-58464803D01*
X124122914Y-58637233D01*
X123803355Y-58956235D01*
X123760000Y-59060645D01*
X123760000Y-58314802D01*
X125417401Y-56657402D01*
X125572724Y-56424943D01*
X125582148Y-56410839D01*
X125593446Y-56354040D01*
X125995481Y-56085409D01*
X126328227Y-55587419D01*
X126445072Y-55000000D01*
X126328227Y-54412581D01*
X125995481Y-53914591D01*
X125497491Y-53581845D01*
X124910072Y-53465000D01*
X124849928Y-53465000D01*
X124262509Y-53581845D01*
X123764519Y-53914591D01*
X123431773Y-54412581D01*
X123314928Y-55000000D01*
X123431773Y-55587419D01*
X123764519Y-56085409D01*
X123809640Y-56115558D01*
X122462599Y-57462599D01*
X122297852Y-57709161D01*
X122240000Y-58000000D01*
X122240000Y-59685198D01*
X122185198Y-59740000D01*
X121455047Y-59740000D01*
X121386894Y-59575057D01*
X121062241Y-59249836D01*
X121385278Y-58927363D01*
X121634716Y-58326648D01*
X121635284Y-57676205D01*
X121386894Y-57075057D01*
X121062241Y-56749836D01*
X121385278Y-56427363D01*
X121634716Y-55826648D01*
X121635284Y-55176205D01*
X121386894Y-54575057D01*
X120927363Y-54114722D01*
X120326648Y-53865284D01*
X119676205Y-53864716D01*
X119075057Y-54113106D01*
X118614722Y-54572637D01*
X118365284Y-55173352D01*
X118364716Y-55823795D01*
X117710000Y-55823795D01*
X117710000Y-50423795D01*
X117864716Y-50423795D01*
X118113106Y-51024943D01*
X118572637Y-51485278D01*
X119173352Y-51734716D01*
X119823795Y-51735284D01*
X120424943Y-51486894D01*
X120885278Y-51027363D01*
X121134716Y-50426648D01*
X121135284Y-49776205D01*
X120886894Y-49175057D01*
X120427363Y-48714722D01*
X119826648Y-48465284D01*
X119176205Y-48464716D01*
X118575057Y-48713106D01*
X118114722Y-49172637D01*
X117865284Y-49773352D01*
X117864716Y-50423795D01*
X117710000Y-50423795D01*
X117710000Y-45869931D01*
X117821046Y-45311662D01*
X118097669Y-44897667D01*
X118511660Y-44621047D01*
X119069931Y-44510000D01*
X120530069Y-44510000D01*
X121471023Y-44697167D01*
X122247492Y-45215987D01*
X122463628Y-45465194D01*
X122483781Y-45480835D01*
X122497954Y-45502046D01*
X123497954Y-46502046D01*
X123597360Y-46568466D01*
X123692997Y-46640195D01*
X125452092Y-47483763D01*
X125567533Y-47513338D01*
X125720453Y-47552516D01*
X127668465Y-47658695D01*
X127805587Y-47639105D01*
X127942709Y-47619517D01*
X129783070Y-46972142D01*
X129934954Y-46882210D01*
X130021446Y-46830998D01*
X131473978Y-45528626D01*
X131612412Y-45344046D01*
X131640195Y-45307003D01*
X132483763Y-43547908D01*
X132520235Y-43405546D01*
X132552516Y-43279547D01*
X132604947Y-42317609D01*
X133556538Y-42317609D01*
X133571714Y-42409376D01*
X133818067Y-42829125D01*
X134206299Y-43122647D01*
X134677304Y-43245256D01*
X134873000Y-43082547D01*
X134873000Y-42127000D01*
X133681269Y-42127000D01*
X133556538Y-42317609D01*
X132604947Y-42317609D01*
X132658695Y-41331535D01*
X132635743Y-41170875D01*
X132619517Y-41057291D01*
X131972142Y-39216930D01*
X131946518Y-39173654D01*
X131830998Y-38978555D01*
X130528626Y-37526022D01*
X130387593Y-37420248D01*
X130307003Y-37359805D01*
X128547908Y-36516237D01*
X128428964Y-36485765D01*
X128279548Y-36447484D01*
X126331535Y-36341305D01*
X126194413Y-36360895D01*
X126057291Y-36380483D01*
X124216930Y-37027858D01*
X123978555Y-37169002D01*
X122576252Y-38426337D01*
X121753448Y-38921191D01*
X120938587Y-39063214D01*
X119169931Y-39063214D01*
X118573394Y-38944555D01*
X118126957Y-38646256D01*
X117828659Y-38199822D01*
X117709673Y-37601641D01*
X117710000Y-37600000D01*
X117710000Y-37154562D01*
X117795778Y-36572802D01*
X118051881Y-36144676D01*
X118452325Y-35847144D01*
X118996600Y-35710307D01*
X119008883Y-35710000D01*
X134930069Y-35710000D01*
X135488338Y-35821046D01*
X135488338Y-35821046D01*
G37*
X135488338Y-35821046D02*
X135902333Y-36097669D01*
X136178953Y-36511660D01*
X136290000Y-37069931D01*
X136290000Y-38932099D01*
X136101890Y-38803569D01*
X135850000Y-38752560D01*
X134150000Y-38752560D01*
X133914683Y-38796838D01*
X133698559Y-38935910D01*
X133553569Y-39148110D01*
X133502560Y-39400000D01*
X133502560Y-40600000D01*
X133546838Y-40835317D01*
X133685910Y-41051441D01*
X133838309Y-41155571D01*
X133818067Y-41170875D01*
X133571714Y-41590624D01*
X133556538Y-41682391D01*
X133681269Y-41873000D01*
X134873000Y-41873000D01*
X134873000Y-41853000D01*
X135127000Y-41853000D01*
X135127000Y-41873000D01*
X135147000Y-41873000D01*
X135147000Y-42127000D01*
X135127000Y-42127000D01*
X135127000Y-43082547D01*
X135322696Y-43245256D01*
X135793701Y-43122647D01*
X136181933Y-42829125D01*
X136290000Y-42644995D01*
X136290000Y-123775625D01*
X136152389Y-123484866D01*
X135737423Y-123108959D01*
X135349039Y-122948096D01*
X135127000Y-123070085D01*
X135127000Y-124213000D01*
X135147000Y-124213000D01*
X135147000Y-124467000D01*
X135127000Y-124467000D01*
X135127000Y-125609915D01*
X135349039Y-125731904D01*
X135737423Y-125571041D01*
X136152389Y-125195134D01*
X136290000Y-124904375D01*
X136290000Y-133864286D01*
X136217243Y-133688200D01*
X135813923Y-133284176D01*
X135286691Y-133065250D01*
X134715813Y-133064752D01*
X134188200Y-133282757D01*
X133784176Y-133686077D01*
X133565250Y-134213309D01*
X133564752Y-134784187D01*
X133782757Y-135311800D01*
X134186077Y-135715824D01*
X134267931Y-135749813D01*
X134188200Y-135782757D01*
X133784176Y-136186077D01*
X133758345Y-136248286D01*
X133509161Y-136297852D01*
X133262599Y-136462599D01*
X132485198Y-137240000D01*
X130834802Y-137240000D01*
X132037401Y-136037401D01*
X132202148Y-135790840D01*
X132260000Y-135500000D01*
X132260000Y-135305405D01*
X132401021Y-135214660D01*
X132546011Y-135002460D01*
X132597020Y-134750570D01*
X132597020Y-133249430D01*
X132552742Y-133014113D01*
X132413670Y-132797989D01*
X132201470Y-132652999D01*
X131949580Y-132601990D01*
X131050420Y-132601990D01*
X130815103Y-132646268D01*
X130710502Y-132713577D01*
X130645051Y-132669844D01*
X130230000Y-132587285D01*
X129814949Y-132669844D01*
X129595000Y-132816809D01*
X129375051Y-132669844D01*
X129212266Y-132637464D01*
X126537401Y-129962599D01*
X126290839Y-129797852D01*
X126000000Y-129740000D01*
X123314802Y-129740000D01*
X123260000Y-129685198D01*
X123260000Y-128447440D01*
X123300000Y-128447440D01*
X123535317Y-128403162D01*
X123751441Y-128264090D01*
X123762685Y-128247634D01*
X124213309Y-128434750D01*
X124784187Y-128435248D01*
X125311800Y-128217243D01*
X125715824Y-127813923D01*
X125934750Y-127286691D01*
X125935248Y-126715813D01*
X125717243Y-126188200D01*
X125313923Y-125784176D01*
X124786691Y-125565250D01*
X124215813Y-125564752D01*
X123765534Y-125750803D01*
X123764090Y-125748559D01*
X123551890Y-125603569D01*
X123300000Y-125552560D01*
X121700000Y-125552560D01*
X121464683Y-125596838D01*
X121260000Y-125728548D01*
X121260000Y-124814802D01*
X121314802Y-124760000D01*
X127185198Y-124760000D01*
X128038734Y-125613536D01*
X127848559Y-125735910D01*
X127703569Y-125948110D01*
X127652560Y-126200000D01*
X127652560Y-127800000D01*
X127696838Y-128035317D01*
X127835910Y-128251441D01*
X128048110Y-128396431D01*
X128300000Y-128447440D01*
X129900000Y-128447440D01*
X130135317Y-128403162D01*
X130351441Y-128264090D01*
X130362685Y-128247634D01*
X130813309Y-128434750D01*
X131384187Y-128435248D01*
X131911800Y-128217243D01*
X132315824Y-127813923D01*
X132534750Y-127286691D01*
X132535248Y-126715813D01*
X132317243Y-126188200D01*
X131913923Y-125784176D01*
X131386691Y-125565250D01*
X130815813Y-125564752D01*
X130365534Y-125750803D01*
X130364090Y-125748559D01*
X130151890Y-125603569D01*
X129900000Y-125552560D01*
X129850564Y-125552560D01*
X129802148Y-125309161D01*
X129637401Y-125062599D01*
X129263843Y-124689041D01*
X133608086Y-124689041D01*
X133847611Y-125195134D01*
X134262577Y-125571041D01*
X134650961Y-125731904D01*
X134873000Y-125609915D01*
X134873000Y-124467000D01*
X133729371Y-124467000D01*
X133608086Y-124689041D01*
X129263843Y-124689041D01*
X128565761Y-123990959D01*
X133608086Y-123990959D01*
X133729371Y-124213000D01*
X134873000Y-124213000D01*
X134873000Y-123070085D01*
X134650961Y-122948096D01*
X134262577Y-123108959D01*
X133847611Y-123484866D01*
X133608086Y-123990959D01*
X128565761Y-123990959D01*
X128459802Y-123885000D01*
X128877000Y-123885000D01*
X129588691Y-123692912D01*
X130172699Y-123243094D01*
X130540114Y-122604026D01*
X130587695Y-122419645D01*
X130471572Y-122127000D01*
X127127000Y-122127000D01*
X127127000Y-122147000D01*
X126873000Y-122147000D01*
X126873000Y-122127000D01*
X123528428Y-122127000D01*
X123412305Y-122419645D01*
X123459886Y-122604026D01*
X123825522Y-123240000D01*
X121000000Y-123240000D01*
X120709161Y-123297852D01*
X120462599Y-123462599D01*
X120244889Y-123680309D01*
X120152389Y-123484866D01*
X119737423Y-123108959D01*
X119349039Y-122948096D01*
X119127000Y-123070085D01*
X119127000Y-124213000D01*
X119147000Y-124213000D01*
X119147000Y-124467000D01*
X119127000Y-124467000D01*
X119127000Y-125609915D01*
X119349039Y-125731904D01*
X119737423Y-125571041D01*
X119740000Y-125568707D01*
X119740000Y-129500000D01*
X119797852Y-129790839D01*
X119962599Y-130037401D01*
X121200000Y-131274802D01*
X121200000Y-132900331D01*
X121193086Y-132904951D01*
X120957979Y-133256814D01*
X120875420Y-133671865D01*
X120875420Y-134328135D01*
X120957979Y-134743186D01*
X121193086Y-135095049D01*
X121200000Y-135099669D01*
X121200000Y-136460000D01*
X121257852Y-136750839D01*
X121422599Y-136997401D01*
X122962599Y-138537401D01*
X123209161Y-138702148D01*
X123500000Y-138760000D01*
X125185198Y-138760000D01*
X126056664Y-139631466D01*
X125749836Y-139937759D01*
X125427363Y-139614722D01*
X124826648Y-139365284D01*
X124176205Y-139364716D01*
X123575057Y-139613106D01*
X123114722Y-140072637D01*
X122865284Y-140673352D01*
X122864716Y-141323795D01*
X123113106Y-141924943D01*
X123572637Y-142385278D01*
X124173352Y-142634716D01*
X124823795Y-142635284D01*
X125424943Y-142386894D01*
X125750164Y-142062241D01*
X126072637Y-142385278D01*
X126673352Y-142634716D01*
X127323795Y-142635284D01*
X127924943Y-142386894D01*
X128250164Y-142062241D01*
X128572637Y-142385278D01*
X129173352Y-142634716D01*
X129823795Y-142635284D01*
X130424943Y-142386894D01*
X130885278Y-141927363D01*
X131134716Y-141326648D01*
X131135284Y-140676205D01*
X130886894Y-140075057D01*
X130427363Y-139614722D01*
X129826648Y-139365284D01*
X129176205Y-139364716D01*
X128575057Y-139613106D01*
X128249836Y-139937759D01*
X127927363Y-139614722D01*
X127760000Y-139545227D01*
X127760000Y-139500000D01*
X127702148Y-139209161D01*
X127702148Y-139209160D01*
X127537401Y-138962599D01*
X127334802Y-138760000D01*
X132800000Y-138760000D01*
X133090839Y-138702148D01*
X133337401Y-138537401D01*
X133922757Y-137952045D01*
X134186077Y-138215824D01*
X134713309Y-138434750D01*
X135284187Y-138435248D01*
X135811800Y-138217243D01*
X136215824Y-137813923D01*
X136290000Y-137635287D01*
X136290000Y-146529207D01*
X136014698Y-146117189D01*
X135549151Y-145806120D01*
X135000000Y-145696887D01*
X134450849Y-145806120D01*
X133985302Y-146117189D01*
X133796333Y-146400000D01*
X124240000Y-146400000D01*
X123949161Y-146457852D01*
X123702599Y-146622599D01*
X121872638Y-148452560D01*
X119640923Y-148452560D01*
X120014698Y-148202811D01*
X120325767Y-147737264D01*
X120435000Y-147188113D01*
X120435000Y-147131887D01*
X120325767Y-146582736D01*
X120014698Y-146117189D01*
X119549151Y-145806120D01*
X119000000Y-145696887D01*
X118450849Y-145806120D01*
X117985302Y-146117189D01*
X117710000Y-146529207D01*
X117710000Y-137635714D01*
X117782757Y-137811800D01*
X118186077Y-138215824D01*
X118713309Y-138434750D01*
X119284187Y-138435248D01*
X119811800Y-138217243D01*
X120215824Y-137813923D01*
X120434750Y-137286691D01*
X120435248Y-136715813D01*
X120217243Y-136188200D01*
X119813923Y-135784176D01*
X119732069Y-135750187D01*
X119811800Y-135717243D01*
X120215824Y-135313923D01*
X120434750Y-134786691D01*
X120435248Y-134215813D01*
X120217243Y-133688200D01*
X119813923Y-133284176D01*
X119286691Y-133065250D01*
X118715813Y-133064752D01*
X118188200Y-133282757D01*
X117784176Y-133686077D01*
X117710000Y-133864713D01*
X117710000Y-124904375D01*
X117847611Y-125195134D01*
X118262577Y-125571041D01*
X118650961Y-125731904D01*
X118873000Y-125609915D01*
X118873000Y-124467000D01*
X118853000Y-124467000D01*
X118853000Y-124213000D01*
X118873000Y-124213000D01*
X118873000Y-123070085D01*
X118650961Y-122948096D01*
X118262577Y-123108959D01*
X117847611Y-123484866D01*
X117710000Y-123775625D01*
X117710000Y-121580355D01*
X123412305Y-121580355D01*
X123528428Y-121873000D01*
X126873000Y-121873000D01*
X126873000Y-120115000D01*
X127127000Y-120115000D01*
X127127000Y-121873000D01*
X130471572Y-121873000D01*
X130587695Y-121580355D01*
X130540114Y-121395974D01*
X130172699Y-120756906D01*
X129588691Y-120307088D01*
X128877000Y-120115000D01*
X127127000Y-120115000D01*
X126873000Y-120115000D01*
X125123000Y-120115000D01*
X124411309Y-120307088D01*
X123827301Y-120756906D01*
X123459886Y-121395974D01*
X123412305Y-121580355D01*
X117710000Y-121580355D01*
X117710000Y-64000000D01*
X123293786Y-64000000D01*
X123437273Y-64721358D01*
X123845890Y-65332896D01*
X124457428Y-65741513D01*
X125178786Y-65885000D01*
X128821214Y-65885000D01*
X129542572Y-65741513D01*
X130154110Y-65332896D01*
X130562727Y-64721358D01*
X130706214Y-64000000D01*
X130562727Y-63278642D01*
X130154110Y-62667104D01*
X129542572Y-62258487D01*
X128821214Y-62115000D01*
X125178786Y-62115000D01*
X124457428Y-62258487D01*
X123845890Y-62667104D01*
X123437273Y-63278642D01*
X123293786Y-64000000D01*
X117710000Y-64000000D01*
X117710000Y-55823795D01*
X118364716Y-55823795D01*
X118613106Y-56424943D01*
X118937759Y-56750164D01*
X118614722Y-57072637D01*
X118365284Y-57673352D01*
X118364716Y-58323795D01*
X118613106Y-58924943D01*
X118937759Y-59250164D01*
X118614722Y-59572637D01*
X118365284Y-60173352D01*
X118364716Y-60823795D01*
X118613106Y-61424943D01*
X119072637Y-61885278D01*
X119673352Y-62134716D01*
X120323795Y-62135284D01*
X120632462Y-62007745D01*
X132171861Y-62007745D01*
X132245995Y-62253864D01*
X132783223Y-62446965D01*
X133353454Y-62419778D01*
X133754005Y-62253864D01*
X133828139Y-62007745D01*
X133000000Y-61179605D01*
X132171861Y-62007745D01*
X120632462Y-62007745D01*
X120924943Y-61886894D01*
X121385278Y-61427363D01*
X121454773Y-61260000D01*
X122500000Y-61260000D01*
X122790839Y-61202148D01*
X123037401Y-61037401D01*
X123537401Y-60537401D01*
X123702148Y-60290839D01*
X123741218Y-60094420D01*
X123802233Y-60242086D01*
X124121235Y-60561645D01*
X124538244Y-60734803D01*
X124989775Y-60735197D01*
X125407086Y-60562767D01*
X125472962Y-60497006D01*
X125491648Y-60605217D01*
X125919972Y-60748112D01*
X126370375Y-60716217D01*
X126638352Y-60605217D01*
X126652566Y-60522908D01*
X126691235Y-60561645D01*
X127108244Y-60734803D01*
X127559775Y-60735197D01*
X127977086Y-60562767D01*
X127984734Y-60555132D01*
X127991235Y-60561645D01*
X128408244Y-60734803D01*
X128859775Y-60735197D01*
X129277086Y-60562767D01*
X129596645Y-60243765D01*
X129769803Y-59826756D01*
X129770197Y-59375225D01*
X129597767Y-58957914D01*
X129278765Y-58638355D01*
X128861756Y-58465197D01*
X128410225Y-58464803D01*
X128095000Y-58595052D01*
X128095000Y-58200000D01*
X131552560Y-58200000D01*
X131552560Y-59800000D01*
X131596838Y-60035317D01*
X131735910Y-60251441D01*
X131742548Y-60255977D01*
X131553035Y-60783223D01*
X131580222Y-61353454D01*
X131746136Y-61754005D01*
X131992255Y-61828139D01*
X132820395Y-61000000D01*
X132806252Y-60985858D01*
X132985858Y-60806253D01*
X133000000Y-60820395D01*
X133014143Y-60806253D01*
X133193748Y-60985858D01*
X133179605Y-61000000D01*
X134007745Y-61828139D01*
X134253864Y-61754005D01*
X134446965Y-61216777D01*
X134419778Y-60646546D01*
X134257616Y-60255053D01*
X134396431Y-60051890D01*
X134447440Y-59800000D01*
X134447440Y-58200000D01*
X134403162Y-57964683D01*
X134264090Y-57748559D01*
X134051890Y-57603569D01*
X133800000Y-57552560D01*
X132200000Y-57552560D01*
X131964683Y-57596838D01*
X131748559Y-57735910D01*
X131603569Y-57948110D01*
X131552560Y-58200000D01*
X128095000Y-58200000D01*
X128095000Y-54100000D01*
X130952560Y-54100000D01*
X130952560Y-55900000D01*
X130996838Y-56135317D01*
X131135910Y-56351441D01*
X131348110Y-56496431D01*
X131600000Y-56547440D01*
X133400000Y-56547440D01*
X133635317Y-56503162D01*
X133851441Y-56364090D01*
X133996431Y-56151890D01*
X134047440Y-55900000D01*
X134047440Y-54100000D01*
X134003162Y-53864683D01*
X133864090Y-53648559D01*
X133651890Y-53503569D01*
X133400000Y-53452560D01*
X131600000Y-53452560D01*
X131364683Y-53496838D01*
X131148559Y-53635910D01*
X131003569Y-53848110D01*
X130952560Y-54100000D01*
X128095000Y-54100000D01*
X128095000Y-53779802D01*
X131014802Y-50860000D01*
X133044953Y-50860000D01*
X133113106Y-51024943D01*
X133572637Y-51485278D01*
X134173352Y-51734716D01*
X134823795Y-51735284D01*
X135424943Y-51486894D01*
X135885278Y-51027363D01*
X136134716Y-50426648D01*
X136135284Y-49776205D01*
X135886894Y-49175057D01*
X135427363Y-48714722D01*
X134826648Y-48465284D01*
X134176205Y-48464716D01*
X133575057Y-48713106D01*
X133114722Y-49172637D01*
X133045227Y-49340000D01*
X130700000Y-49340000D01*
X130409161Y-49397852D01*
X130162599Y-49562599D01*
X126797599Y-52927599D01*
X126632852Y-53174161D01*
X126575000Y-53465000D01*
X126575000Y-58573648D01*
X126210028Y-58451888D01*
X125759625Y-58483783D01*
X125491648Y-58594783D01*
X125473010Y-58702712D01*
X125408765Y-58638355D01*
X124991756Y-58465197D01*
X124540225Y-58464803D01*
X124122914Y-58637233D01*
X123803355Y-58956235D01*
X123760000Y-59060645D01*
X123760000Y-58314802D01*
X125417401Y-56657402D01*
X125572724Y-56424943D01*
X125582148Y-56410839D01*
X125593446Y-56354040D01*
X125995481Y-56085409D01*
X126328227Y-55587419D01*
X126445072Y-55000000D01*
X126328227Y-54412581D01*
X125995481Y-53914591D01*
X125497491Y-53581845D01*
X124910072Y-53465000D01*
X124849928Y-53465000D01*
X124262509Y-53581845D01*
X123764519Y-53914591D01*
X123431773Y-54412581D01*
X123314928Y-55000000D01*
X123431773Y-55587419D01*
X123764519Y-56085409D01*
X123809640Y-56115558D01*
X122462599Y-57462599D01*
X122297852Y-57709161D01*
X122240000Y-58000000D01*
X122240000Y-59685198D01*
X122185198Y-59740000D01*
X121455047Y-59740000D01*
X121386894Y-59575057D01*
X121062241Y-59249836D01*
X121385278Y-58927363D01*
X121634716Y-58326648D01*
X121635284Y-57676205D01*
X121386894Y-57075057D01*
X121062241Y-56749836D01*
X121385278Y-56427363D01*
X121634716Y-55826648D01*
X121635284Y-55176205D01*
X121386894Y-54575057D01*
X120927363Y-54114722D01*
X120326648Y-53865284D01*
X119676205Y-53864716D01*
X119075057Y-54113106D01*
X118614722Y-54572637D01*
X118365284Y-55173352D01*
X118364716Y-55823795D01*
X117710000Y-55823795D01*
X117710000Y-50423795D01*
X117864716Y-50423795D01*
X118113106Y-51024943D01*
X118572637Y-51485278D01*
X119173352Y-51734716D01*
X119823795Y-51735284D01*
X120424943Y-51486894D01*
X120885278Y-51027363D01*
X121134716Y-50426648D01*
X121135284Y-49776205D01*
X120886894Y-49175057D01*
X120427363Y-48714722D01*
X119826648Y-48465284D01*
X119176205Y-48464716D01*
X118575057Y-48713106D01*
X118114722Y-49172637D01*
X117865284Y-49773352D01*
X117864716Y-50423795D01*
X117710000Y-50423795D01*
X117710000Y-45869931D01*
X117821046Y-45311662D01*
X118097669Y-44897667D01*
X118511660Y-44621047D01*
X119069931Y-44510000D01*
X120530069Y-44510000D01*
X121471023Y-44697167D01*
X122247492Y-45215987D01*
X122463628Y-45465194D01*
X122483781Y-45480835D01*
X122497954Y-45502046D01*
X123497954Y-46502046D01*
X123597360Y-46568466D01*
X123692997Y-46640195D01*
X125452092Y-47483763D01*
X125567533Y-47513338D01*
X125720453Y-47552516D01*
X127668465Y-47658695D01*
X127805587Y-47639105D01*
X127942709Y-47619517D01*
X129783070Y-46972142D01*
X129934954Y-46882210D01*
X130021446Y-46830998D01*
X131473978Y-45528626D01*
X131612412Y-45344046D01*
X131640195Y-45307003D01*
X132483763Y-43547908D01*
X132520235Y-43405546D01*
X132552516Y-43279547D01*
X132604947Y-42317609D01*
X133556538Y-42317609D01*
X133571714Y-42409376D01*
X133818067Y-42829125D01*
X134206299Y-43122647D01*
X134677304Y-43245256D01*
X134873000Y-43082547D01*
X134873000Y-42127000D01*
X133681269Y-42127000D01*
X133556538Y-42317609D01*
X132604947Y-42317609D01*
X132658695Y-41331535D01*
X132635743Y-41170875D01*
X132619517Y-41057291D01*
X131972142Y-39216930D01*
X131946518Y-39173654D01*
X131830998Y-38978555D01*
X130528626Y-37526022D01*
X130387593Y-37420248D01*
X130307003Y-37359805D01*
X128547908Y-36516237D01*
X128428964Y-36485765D01*
X128279548Y-36447484D01*
X126331535Y-36341305D01*
X126194413Y-36360895D01*
X126057291Y-36380483D01*
X124216930Y-37027858D01*
X123978555Y-37169002D01*
X122576252Y-38426337D01*
X121753448Y-38921191D01*
X120938587Y-39063214D01*
X119169931Y-39063214D01*
X118573394Y-38944555D01*
X118126957Y-38646256D01*
X117828659Y-38199822D01*
X117709673Y-37601641D01*
X117710000Y-37600000D01*
X117710000Y-37154562D01*
X117795778Y-36572802D01*
X118051881Y-36144676D01*
X118452325Y-35847144D01*
X118996600Y-35710307D01*
X119008883Y-35710000D01*
X134930069Y-35710000D01*
X135488338Y-35821046D01*
G36*
X126200063Y-59527173D02*
X126199935Y-59672955D01*
X126079143Y-59793748D01*
X126065000Y-59779605D01*
X126050858Y-59793748D01*
X125899963Y-59642853D01*
X125900038Y-59557072D01*
X126050858Y-59406253D01*
X126065000Y-59420395D01*
X126079143Y-59406253D01*
X126200063Y-59527173D01*
X126200063Y-59527173D01*
G37*
X126200063Y-59527173D02*
X126199935Y-59672955D01*
X126079143Y-59793748D01*
X126065000Y-59779605D01*
X126050858Y-59793748D01*
X125899963Y-59642853D01*
X125900038Y-59557072D01*
X126050858Y-59406253D01*
X126065000Y-59420395D01*
X126079143Y-59406253D01*
X126200063Y-59527173D01*
M02*
