G04 #@! TF.FileFunction,Legend,Top*
%FSLAX46Y46*%
G04 Gerber Fmt 4.6, Leading zero omitted, Abs format (unit mm)*
G04 Created by KiCad (PCBNEW 4.0.6) date Sat May 20 01:56:05 2017*
%MOMM*%
%LPD*%
G01*
G04 APERTURE LIST*
%ADD10C,0.100000*%
%ADD11C,0.200000*%
%ADD12C,0.300000*%
%ADD13C,0.150000*%
%ADD14C,0.120000*%
G04 APERTURE END LIST*
D10*
D11*
X133019048Y-151871429D02*
X133780953Y-151871429D01*
X120019048Y-154071429D02*
X120780953Y-154071429D01*
X120400001Y-154452381D02*
X120400001Y-153690476D01*
D12*
X125214286Y-119107143D02*
X126357143Y-119107143D01*
X126928572Y-118678571D02*
X127285715Y-119678571D01*
X127642857Y-118678571D01*
X128785714Y-119607143D02*
X128642857Y-119678571D01*
X128357143Y-119678571D01*
X128214286Y-119607143D01*
X128142857Y-119464286D01*
X128142857Y-118892857D01*
X128214286Y-118750000D01*
X128357143Y-118678571D01*
X128642857Y-118678571D01*
X128785714Y-118750000D01*
X128857143Y-118892857D01*
X128857143Y-119035714D01*
X128142857Y-119178571D01*
X125214286Y-67107143D02*
X126357143Y-67107143D01*
X125785714Y-67678571D02*
X125785714Y-66535714D01*
X126928572Y-66678571D02*
X127285715Y-67678571D01*
X127642857Y-66678571D01*
X128785714Y-67607143D02*
X128642857Y-67678571D01*
X128357143Y-67678571D01*
X128214286Y-67607143D01*
X128142857Y-67464286D01*
X128142857Y-66892857D01*
X128214286Y-66750000D01*
X128357143Y-66678571D01*
X128642857Y-66678571D01*
X128785714Y-66750000D01*
X128857143Y-66892857D01*
X128857143Y-67035714D01*
X128142857Y-67178571D01*
D13*
X132316667Y-142199999D02*
X131616667Y-142199999D01*
X131950000Y-142199999D02*
X131950000Y-141799999D01*
X132316667Y-141799999D02*
X131616667Y-141799999D01*
X131616667Y-141333333D02*
X131616667Y-141200000D01*
X131650000Y-141133333D01*
X131716667Y-141066666D01*
X131850000Y-141033333D01*
X132083333Y-141033333D01*
X132216667Y-141066666D01*
X132283333Y-141133333D01*
X132316667Y-141200000D01*
X132316667Y-141333333D01*
X132283333Y-141400000D01*
X132216667Y-141466666D01*
X132083333Y-141500000D01*
X131850000Y-141500000D01*
X131716667Y-141466666D01*
X131650000Y-141400000D01*
X131616667Y-141333333D01*
X132316667Y-140400000D02*
X132316667Y-140733333D01*
X131616667Y-140733333D01*
X132316667Y-140166666D02*
X131616667Y-140166666D01*
X131616667Y-140000000D01*
X131650000Y-139900000D01*
X131716667Y-139833333D01*
X131783333Y-139800000D01*
X131916667Y-139766666D01*
X132016667Y-139766666D01*
X132150000Y-139800000D01*
X132216667Y-139833333D01*
X132283333Y-139900000D01*
X132316667Y-140000000D01*
X132316667Y-140166666D01*
X121850000Y-142016666D02*
X121883333Y-141916666D01*
X121916667Y-141883333D01*
X121983333Y-141849999D01*
X122083333Y-141849999D01*
X122150000Y-141883333D01*
X122183333Y-141916666D01*
X122216667Y-141983333D01*
X122216667Y-142249999D01*
X121516667Y-142249999D01*
X121516667Y-142016666D01*
X121550000Y-141949999D01*
X121583333Y-141916666D01*
X121650000Y-141883333D01*
X121716667Y-141883333D01*
X121783333Y-141916666D01*
X121816667Y-141949999D01*
X121850000Y-142016666D01*
X121850000Y-142249999D01*
X122216667Y-141216666D02*
X122216667Y-141549999D01*
X121516667Y-141549999D01*
X122216667Y-140983332D02*
X121516667Y-140983332D01*
X122216667Y-140649999D02*
X121516667Y-140649999D01*
X122216667Y-140249999D01*
X121516667Y-140249999D01*
X122216667Y-139916666D02*
X121516667Y-139916666D01*
X122216667Y-139516666D02*
X121816667Y-139816666D01*
X121516667Y-139516666D02*
X121916667Y-139916666D01*
D11*
X118147619Y-52052381D02*
X118338096Y-52052381D01*
X118433334Y-52100000D01*
X118528572Y-52195238D01*
X118576191Y-52385714D01*
X118576191Y-52719048D01*
X118528572Y-52909524D01*
X118433334Y-53004762D01*
X118338096Y-53052381D01*
X118147619Y-53052381D01*
X118052381Y-53004762D01*
X117957143Y-52909524D01*
X117909524Y-52719048D01*
X117909524Y-52385714D01*
X117957143Y-52195238D01*
X118052381Y-52100000D01*
X118147619Y-52052381D01*
X119338096Y-52528571D02*
X119004762Y-52528571D01*
X119004762Y-53052381D02*
X119004762Y-52052381D01*
X119480953Y-52052381D01*
X120195239Y-52528571D02*
X119861905Y-52528571D01*
X119861905Y-53052381D02*
X119861905Y-52052381D01*
X120338096Y-52052381D01*
X118580952Y-62652381D02*
X118771429Y-62652381D01*
X118866667Y-62700000D01*
X118961905Y-62795238D01*
X119009524Y-62985714D01*
X119009524Y-63319048D01*
X118961905Y-63509524D01*
X118866667Y-63604762D01*
X118771429Y-63652381D01*
X118580952Y-63652381D01*
X118485714Y-63604762D01*
X118390476Y-63509524D01*
X118342857Y-63319048D01*
X118342857Y-62985714D01*
X118390476Y-62795238D01*
X118485714Y-62700000D01*
X118580952Y-62652381D01*
X119438095Y-63652381D02*
X119438095Y-62652381D01*
X120009524Y-63652381D01*
X120009524Y-62652381D01*
D13*
X118000000Y-93000000D02*
X118000000Y-64000000D01*
X118000000Y-64000000D02*
X136000000Y-64000000D01*
X136000000Y-64000000D02*
X136000000Y-122000000D01*
X136000000Y-122000000D02*
X118000000Y-122000000D01*
X118000000Y-122000000D02*
X118000000Y-93000000D01*
D14*
X133981400Y-62396863D02*
G75*
G03X133980000Y-57602564I-981400J2396863D01*
G01*
X132018600Y-62396863D02*
G75*
G02X132020000Y-57602564I981400J2396863D01*
G01*
X132018600Y-62396863D02*
G75*
G03X133980000Y-62397436I981400J2396863D01*
G01*
X135550000Y-60000000D02*
X130450000Y-60000000D01*
X135550000Y-60040000D02*
X133980000Y-60040000D01*
X132020000Y-60040000D02*
X130450000Y-60040000D01*
X135549000Y-60080000D02*
X133980000Y-60080000D01*
X132020000Y-60080000D02*
X130451000Y-60080000D01*
X135548000Y-60120000D02*
X133980000Y-60120000D01*
X132020000Y-60120000D02*
X130452000Y-60120000D01*
X135546000Y-60160000D02*
X133980000Y-60160000D01*
X132020000Y-60160000D02*
X130454000Y-60160000D01*
X135543000Y-60200000D02*
X133980000Y-60200000D01*
X132020000Y-60200000D02*
X130457000Y-60200000D01*
X135539000Y-60240000D02*
X133980000Y-60240000D01*
X132020000Y-60240000D02*
X130461000Y-60240000D01*
X135535000Y-60280000D02*
X133980000Y-60280000D01*
X132020000Y-60280000D02*
X130465000Y-60280000D01*
X135531000Y-60320000D02*
X133980000Y-60320000D01*
X132020000Y-60320000D02*
X130469000Y-60320000D01*
X135525000Y-60360000D02*
X133980000Y-60360000D01*
X132020000Y-60360000D02*
X130475000Y-60360000D01*
X135519000Y-60400000D02*
X133980000Y-60400000D01*
X132020000Y-60400000D02*
X130481000Y-60400000D01*
X135513000Y-60440000D02*
X133980000Y-60440000D01*
X132020000Y-60440000D02*
X130487000Y-60440000D01*
X135506000Y-60480000D02*
X133980000Y-60480000D01*
X132020000Y-60480000D02*
X130494000Y-60480000D01*
X135498000Y-60520000D02*
X133980000Y-60520000D01*
X132020000Y-60520000D02*
X130502000Y-60520000D01*
X135489000Y-60560000D02*
X133980000Y-60560000D01*
X132020000Y-60560000D02*
X130511000Y-60560000D01*
X135480000Y-60600000D02*
X133980000Y-60600000D01*
X132020000Y-60600000D02*
X130520000Y-60600000D01*
X135470000Y-60640000D02*
X133980000Y-60640000D01*
X132020000Y-60640000D02*
X130530000Y-60640000D01*
X135460000Y-60680000D02*
X133980000Y-60680000D01*
X132020000Y-60680000D02*
X130540000Y-60680000D01*
X135448000Y-60721000D02*
X133980000Y-60721000D01*
X132020000Y-60721000D02*
X130552000Y-60721000D01*
X135436000Y-60761000D02*
X133980000Y-60761000D01*
X132020000Y-60761000D02*
X130564000Y-60761000D01*
X135424000Y-60801000D02*
X133980000Y-60801000D01*
X132020000Y-60801000D02*
X130576000Y-60801000D01*
X135410000Y-60841000D02*
X133980000Y-60841000D01*
X132020000Y-60841000D02*
X130590000Y-60841000D01*
X135396000Y-60881000D02*
X133980000Y-60881000D01*
X132020000Y-60881000D02*
X130604000Y-60881000D01*
X135382000Y-60921000D02*
X133980000Y-60921000D01*
X132020000Y-60921000D02*
X130618000Y-60921000D01*
X135366000Y-60961000D02*
X133980000Y-60961000D01*
X132020000Y-60961000D02*
X130634000Y-60961000D01*
X135350000Y-61001000D02*
X133980000Y-61001000D01*
X132020000Y-61001000D02*
X130650000Y-61001000D01*
X135333000Y-61041000D02*
X133980000Y-61041000D01*
X132020000Y-61041000D02*
X130667000Y-61041000D01*
X135315000Y-61081000D02*
X133980000Y-61081000D01*
X132020000Y-61081000D02*
X130685000Y-61081000D01*
X135296000Y-61121000D02*
X133980000Y-61121000D01*
X132020000Y-61121000D02*
X130704000Y-61121000D01*
X135276000Y-61161000D02*
X133980000Y-61161000D01*
X132020000Y-61161000D02*
X130724000Y-61161000D01*
X135256000Y-61201000D02*
X133980000Y-61201000D01*
X132020000Y-61201000D02*
X130744000Y-61201000D01*
X135234000Y-61241000D02*
X133980000Y-61241000D01*
X132020000Y-61241000D02*
X130766000Y-61241000D01*
X135212000Y-61281000D02*
X133980000Y-61281000D01*
X132020000Y-61281000D02*
X130788000Y-61281000D01*
X135189000Y-61321000D02*
X133980000Y-61321000D01*
X132020000Y-61321000D02*
X130811000Y-61321000D01*
X135165000Y-61361000D02*
X133980000Y-61361000D01*
X132020000Y-61361000D02*
X130835000Y-61361000D01*
X135140000Y-61401000D02*
X133980000Y-61401000D01*
X132020000Y-61401000D02*
X130860000Y-61401000D01*
X135113000Y-61441000D02*
X133980000Y-61441000D01*
X132020000Y-61441000D02*
X130887000Y-61441000D01*
X135086000Y-61481000D02*
X133980000Y-61481000D01*
X132020000Y-61481000D02*
X130914000Y-61481000D01*
X135058000Y-61521000D02*
X133980000Y-61521000D01*
X132020000Y-61521000D02*
X130942000Y-61521000D01*
X135028000Y-61561000D02*
X133980000Y-61561000D01*
X132020000Y-61561000D02*
X130972000Y-61561000D01*
X134997000Y-61601000D02*
X133980000Y-61601000D01*
X132020000Y-61601000D02*
X131003000Y-61601000D01*
X134965000Y-61641000D02*
X133980000Y-61641000D01*
X132020000Y-61641000D02*
X131035000Y-61641000D01*
X134932000Y-61681000D02*
X133980000Y-61681000D01*
X132020000Y-61681000D02*
X131068000Y-61681000D01*
X134897000Y-61721000D02*
X133980000Y-61721000D01*
X132020000Y-61721000D02*
X131103000Y-61721000D01*
X134861000Y-61761000D02*
X133980000Y-61761000D01*
X132020000Y-61761000D02*
X131139000Y-61761000D01*
X134823000Y-61801000D02*
X133980000Y-61801000D01*
X132020000Y-61801000D02*
X131177000Y-61801000D01*
X134783000Y-61841000D02*
X133980000Y-61841000D01*
X132020000Y-61841000D02*
X131217000Y-61841000D01*
X134742000Y-61881000D02*
X133980000Y-61881000D01*
X132020000Y-61881000D02*
X131258000Y-61881000D01*
X134699000Y-61921000D02*
X133980000Y-61921000D01*
X132020000Y-61921000D02*
X131301000Y-61921000D01*
X134654000Y-61961000D02*
X133980000Y-61961000D01*
X132020000Y-61961000D02*
X131346000Y-61961000D01*
X134606000Y-62001000D02*
X131394000Y-62001000D01*
X134556000Y-62041000D02*
X131444000Y-62041000D01*
X134504000Y-62081000D02*
X131496000Y-62081000D01*
X134448000Y-62121000D02*
X131552000Y-62121000D01*
X134390000Y-62161000D02*
X131610000Y-62161000D01*
X134327000Y-62201000D02*
X131673000Y-62201000D01*
X134261000Y-62241000D02*
X131739000Y-62241000D01*
X134189000Y-62281000D02*
X131811000Y-62281000D01*
X134112000Y-62321000D02*
X131888000Y-62321000D01*
X134028000Y-62361000D02*
X131972000Y-62361000D01*
X133934000Y-62401000D02*
X132066000Y-62401000D01*
X133829000Y-62441000D02*
X132171000Y-62441000D01*
X133707000Y-62481000D02*
X132293000Y-62481000D01*
X133559000Y-62521000D02*
X132441000Y-62521000D01*
X133354000Y-62561000D02*
X132646000Y-62561000D01*
X133000000Y-56800000D02*
X133000000Y-58000000D01*
X133650000Y-57400000D02*
X132350000Y-57400000D01*
X125896863Y-126018600D02*
G75*
G03X121102564Y-126020000I-2396863J-981400D01*
G01*
X125896863Y-127981400D02*
G75*
G02X121102564Y-127980000I-2396863J981400D01*
G01*
X125896863Y-127981400D02*
G75*
G03X125897436Y-126020000I-2396863J981400D01*
G01*
X123500000Y-124450000D02*
X123500000Y-129550000D01*
X123540000Y-124450000D02*
X123540000Y-126020000D01*
X123540000Y-127980000D02*
X123540000Y-129550000D01*
X123580000Y-124451000D02*
X123580000Y-126020000D01*
X123580000Y-127980000D02*
X123580000Y-129549000D01*
X123620000Y-124452000D02*
X123620000Y-126020000D01*
X123620000Y-127980000D02*
X123620000Y-129548000D01*
X123660000Y-124454000D02*
X123660000Y-126020000D01*
X123660000Y-127980000D02*
X123660000Y-129546000D01*
X123700000Y-124457000D02*
X123700000Y-126020000D01*
X123700000Y-127980000D02*
X123700000Y-129543000D01*
X123740000Y-124461000D02*
X123740000Y-126020000D01*
X123740000Y-127980000D02*
X123740000Y-129539000D01*
X123780000Y-124465000D02*
X123780000Y-126020000D01*
X123780000Y-127980000D02*
X123780000Y-129535000D01*
X123820000Y-124469000D02*
X123820000Y-126020000D01*
X123820000Y-127980000D02*
X123820000Y-129531000D01*
X123860000Y-124475000D02*
X123860000Y-126020000D01*
X123860000Y-127980000D02*
X123860000Y-129525000D01*
X123900000Y-124481000D02*
X123900000Y-126020000D01*
X123900000Y-127980000D02*
X123900000Y-129519000D01*
X123940000Y-124487000D02*
X123940000Y-126020000D01*
X123940000Y-127980000D02*
X123940000Y-129513000D01*
X123980000Y-124494000D02*
X123980000Y-126020000D01*
X123980000Y-127980000D02*
X123980000Y-129506000D01*
X124020000Y-124502000D02*
X124020000Y-126020000D01*
X124020000Y-127980000D02*
X124020000Y-129498000D01*
X124060000Y-124511000D02*
X124060000Y-126020000D01*
X124060000Y-127980000D02*
X124060000Y-129489000D01*
X124100000Y-124520000D02*
X124100000Y-126020000D01*
X124100000Y-127980000D02*
X124100000Y-129480000D01*
X124140000Y-124530000D02*
X124140000Y-126020000D01*
X124140000Y-127980000D02*
X124140000Y-129470000D01*
X124180000Y-124540000D02*
X124180000Y-126020000D01*
X124180000Y-127980000D02*
X124180000Y-129460000D01*
X124221000Y-124552000D02*
X124221000Y-126020000D01*
X124221000Y-127980000D02*
X124221000Y-129448000D01*
X124261000Y-124564000D02*
X124261000Y-126020000D01*
X124261000Y-127980000D02*
X124261000Y-129436000D01*
X124301000Y-124576000D02*
X124301000Y-126020000D01*
X124301000Y-127980000D02*
X124301000Y-129424000D01*
X124341000Y-124590000D02*
X124341000Y-126020000D01*
X124341000Y-127980000D02*
X124341000Y-129410000D01*
X124381000Y-124604000D02*
X124381000Y-126020000D01*
X124381000Y-127980000D02*
X124381000Y-129396000D01*
X124421000Y-124618000D02*
X124421000Y-126020000D01*
X124421000Y-127980000D02*
X124421000Y-129382000D01*
X124461000Y-124634000D02*
X124461000Y-126020000D01*
X124461000Y-127980000D02*
X124461000Y-129366000D01*
X124501000Y-124650000D02*
X124501000Y-126020000D01*
X124501000Y-127980000D02*
X124501000Y-129350000D01*
X124541000Y-124667000D02*
X124541000Y-126020000D01*
X124541000Y-127980000D02*
X124541000Y-129333000D01*
X124581000Y-124685000D02*
X124581000Y-126020000D01*
X124581000Y-127980000D02*
X124581000Y-129315000D01*
X124621000Y-124704000D02*
X124621000Y-126020000D01*
X124621000Y-127980000D02*
X124621000Y-129296000D01*
X124661000Y-124724000D02*
X124661000Y-126020000D01*
X124661000Y-127980000D02*
X124661000Y-129276000D01*
X124701000Y-124744000D02*
X124701000Y-126020000D01*
X124701000Y-127980000D02*
X124701000Y-129256000D01*
X124741000Y-124766000D02*
X124741000Y-126020000D01*
X124741000Y-127980000D02*
X124741000Y-129234000D01*
X124781000Y-124788000D02*
X124781000Y-126020000D01*
X124781000Y-127980000D02*
X124781000Y-129212000D01*
X124821000Y-124811000D02*
X124821000Y-126020000D01*
X124821000Y-127980000D02*
X124821000Y-129189000D01*
X124861000Y-124835000D02*
X124861000Y-126020000D01*
X124861000Y-127980000D02*
X124861000Y-129165000D01*
X124901000Y-124860000D02*
X124901000Y-126020000D01*
X124901000Y-127980000D02*
X124901000Y-129140000D01*
X124941000Y-124887000D02*
X124941000Y-126020000D01*
X124941000Y-127980000D02*
X124941000Y-129113000D01*
X124981000Y-124914000D02*
X124981000Y-126020000D01*
X124981000Y-127980000D02*
X124981000Y-129086000D01*
X125021000Y-124942000D02*
X125021000Y-126020000D01*
X125021000Y-127980000D02*
X125021000Y-129058000D01*
X125061000Y-124972000D02*
X125061000Y-126020000D01*
X125061000Y-127980000D02*
X125061000Y-129028000D01*
X125101000Y-125003000D02*
X125101000Y-126020000D01*
X125101000Y-127980000D02*
X125101000Y-128997000D01*
X125141000Y-125035000D02*
X125141000Y-126020000D01*
X125141000Y-127980000D02*
X125141000Y-128965000D01*
X125181000Y-125068000D02*
X125181000Y-126020000D01*
X125181000Y-127980000D02*
X125181000Y-128932000D01*
X125221000Y-125103000D02*
X125221000Y-126020000D01*
X125221000Y-127980000D02*
X125221000Y-128897000D01*
X125261000Y-125139000D02*
X125261000Y-126020000D01*
X125261000Y-127980000D02*
X125261000Y-128861000D01*
X125301000Y-125177000D02*
X125301000Y-126020000D01*
X125301000Y-127980000D02*
X125301000Y-128823000D01*
X125341000Y-125217000D02*
X125341000Y-126020000D01*
X125341000Y-127980000D02*
X125341000Y-128783000D01*
X125381000Y-125258000D02*
X125381000Y-126020000D01*
X125381000Y-127980000D02*
X125381000Y-128742000D01*
X125421000Y-125301000D02*
X125421000Y-126020000D01*
X125421000Y-127980000D02*
X125421000Y-128699000D01*
X125461000Y-125346000D02*
X125461000Y-126020000D01*
X125461000Y-127980000D02*
X125461000Y-128654000D01*
X125501000Y-125394000D02*
X125501000Y-128606000D01*
X125541000Y-125444000D02*
X125541000Y-128556000D01*
X125581000Y-125496000D02*
X125581000Y-128504000D01*
X125621000Y-125552000D02*
X125621000Y-128448000D01*
X125661000Y-125610000D02*
X125661000Y-128390000D01*
X125701000Y-125673000D02*
X125701000Y-128327000D01*
X125741000Y-125739000D02*
X125741000Y-128261000D01*
X125781000Y-125811000D02*
X125781000Y-128189000D01*
X125821000Y-125888000D02*
X125821000Y-128112000D01*
X125861000Y-125972000D02*
X125861000Y-128028000D01*
X125901000Y-126066000D02*
X125901000Y-127934000D01*
X125941000Y-126171000D02*
X125941000Y-127829000D01*
X125981000Y-126293000D02*
X125981000Y-127707000D01*
X126021000Y-126441000D02*
X126021000Y-127559000D01*
X126061000Y-126646000D02*
X126061000Y-127354000D01*
X120300000Y-127000000D02*
X121500000Y-127000000D01*
X120900000Y-126350000D02*
X120900000Y-127650000D01*
X132496863Y-126018600D02*
G75*
G03X127702564Y-126020000I-2396863J-981400D01*
G01*
X132496863Y-127981400D02*
G75*
G02X127702564Y-127980000I-2396863J981400D01*
G01*
X132496863Y-127981400D02*
G75*
G03X132497436Y-126020000I-2396863J981400D01*
G01*
X130100000Y-124450000D02*
X130100000Y-129550000D01*
X130140000Y-124450000D02*
X130140000Y-126020000D01*
X130140000Y-127980000D02*
X130140000Y-129550000D01*
X130180000Y-124451000D02*
X130180000Y-126020000D01*
X130180000Y-127980000D02*
X130180000Y-129549000D01*
X130220000Y-124452000D02*
X130220000Y-126020000D01*
X130220000Y-127980000D02*
X130220000Y-129548000D01*
X130260000Y-124454000D02*
X130260000Y-126020000D01*
X130260000Y-127980000D02*
X130260000Y-129546000D01*
X130300000Y-124457000D02*
X130300000Y-126020000D01*
X130300000Y-127980000D02*
X130300000Y-129543000D01*
X130340000Y-124461000D02*
X130340000Y-126020000D01*
X130340000Y-127980000D02*
X130340000Y-129539000D01*
X130380000Y-124465000D02*
X130380000Y-126020000D01*
X130380000Y-127980000D02*
X130380000Y-129535000D01*
X130420000Y-124469000D02*
X130420000Y-126020000D01*
X130420000Y-127980000D02*
X130420000Y-129531000D01*
X130460000Y-124475000D02*
X130460000Y-126020000D01*
X130460000Y-127980000D02*
X130460000Y-129525000D01*
X130500000Y-124481000D02*
X130500000Y-126020000D01*
X130500000Y-127980000D02*
X130500000Y-129519000D01*
X130540000Y-124487000D02*
X130540000Y-126020000D01*
X130540000Y-127980000D02*
X130540000Y-129513000D01*
X130580000Y-124494000D02*
X130580000Y-126020000D01*
X130580000Y-127980000D02*
X130580000Y-129506000D01*
X130620000Y-124502000D02*
X130620000Y-126020000D01*
X130620000Y-127980000D02*
X130620000Y-129498000D01*
X130660000Y-124511000D02*
X130660000Y-126020000D01*
X130660000Y-127980000D02*
X130660000Y-129489000D01*
X130700000Y-124520000D02*
X130700000Y-126020000D01*
X130700000Y-127980000D02*
X130700000Y-129480000D01*
X130740000Y-124530000D02*
X130740000Y-126020000D01*
X130740000Y-127980000D02*
X130740000Y-129470000D01*
X130780000Y-124540000D02*
X130780000Y-126020000D01*
X130780000Y-127980000D02*
X130780000Y-129460000D01*
X130821000Y-124552000D02*
X130821000Y-126020000D01*
X130821000Y-127980000D02*
X130821000Y-129448000D01*
X130861000Y-124564000D02*
X130861000Y-126020000D01*
X130861000Y-127980000D02*
X130861000Y-129436000D01*
X130901000Y-124576000D02*
X130901000Y-126020000D01*
X130901000Y-127980000D02*
X130901000Y-129424000D01*
X130941000Y-124590000D02*
X130941000Y-126020000D01*
X130941000Y-127980000D02*
X130941000Y-129410000D01*
X130981000Y-124604000D02*
X130981000Y-126020000D01*
X130981000Y-127980000D02*
X130981000Y-129396000D01*
X131021000Y-124618000D02*
X131021000Y-126020000D01*
X131021000Y-127980000D02*
X131021000Y-129382000D01*
X131061000Y-124634000D02*
X131061000Y-126020000D01*
X131061000Y-127980000D02*
X131061000Y-129366000D01*
X131101000Y-124650000D02*
X131101000Y-126020000D01*
X131101000Y-127980000D02*
X131101000Y-129350000D01*
X131141000Y-124667000D02*
X131141000Y-126020000D01*
X131141000Y-127980000D02*
X131141000Y-129333000D01*
X131181000Y-124685000D02*
X131181000Y-126020000D01*
X131181000Y-127980000D02*
X131181000Y-129315000D01*
X131221000Y-124704000D02*
X131221000Y-126020000D01*
X131221000Y-127980000D02*
X131221000Y-129296000D01*
X131261000Y-124724000D02*
X131261000Y-126020000D01*
X131261000Y-127980000D02*
X131261000Y-129276000D01*
X131301000Y-124744000D02*
X131301000Y-126020000D01*
X131301000Y-127980000D02*
X131301000Y-129256000D01*
X131341000Y-124766000D02*
X131341000Y-126020000D01*
X131341000Y-127980000D02*
X131341000Y-129234000D01*
X131381000Y-124788000D02*
X131381000Y-126020000D01*
X131381000Y-127980000D02*
X131381000Y-129212000D01*
X131421000Y-124811000D02*
X131421000Y-126020000D01*
X131421000Y-127980000D02*
X131421000Y-129189000D01*
X131461000Y-124835000D02*
X131461000Y-126020000D01*
X131461000Y-127980000D02*
X131461000Y-129165000D01*
X131501000Y-124860000D02*
X131501000Y-126020000D01*
X131501000Y-127980000D02*
X131501000Y-129140000D01*
X131541000Y-124887000D02*
X131541000Y-126020000D01*
X131541000Y-127980000D02*
X131541000Y-129113000D01*
X131581000Y-124914000D02*
X131581000Y-126020000D01*
X131581000Y-127980000D02*
X131581000Y-129086000D01*
X131621000Y-124942000D02*
X131621000Y-126020000D01*
X131621000Y-127980000D02*
X131621000Y-129058000D01*
X131661000Y-124972000D02*
X131661000Y-126020000D01*
X131661000Y-127980000D02*
X131661000Y-129028000D01*
X131701000Y-125003000D02*
X131701000Y-126020000D01*
X131701000Y-127980000D02*
X131701000Y-128997000D01*
X131741000Y-125035000D02*
X131741000Y-126020000D01*
X131741000Y-127980000D02*
X131741000Y-128965000D01*
X131781000Y-125068000D02*
X131781000Y-126020000D01*
X131781000Y-127980000D02*
X131781000Y-128932000D01*
X131821000Y-125103000D02*
X131821000Y-126020000D01*
X131821000Y-127980000D02*
X131821000Y-128897000D01*
X131861000Y-125139000D02*
X131861000Y-126020000D01*
X131861000Y-127980000D02*
X131861000Y-128861000D01*
X131901000Y-125177000D02*
X131901000Y-126020000D01*
X131901000Y-127980000D02*
X131901000Y-128823000D01*
X131941000Y-125217000D02*
X131941000Y-126020000D01*
X131941000Y-127980000D02*
X131941000Y-128783000D01*
X131981000Y-125258000D02*
X131981000Y-126020000D01*
X131981000Y-127980000D02*
X131981000Y-128742000D01*
X132021000Y-125301000D02*
X132021000Y-126020000D01*
X132021000Y-127980000D02*
X132021000Y-128699000D01*
X132061000Y-125346000D02*
X132061000Y-126020000D01*
X132061000Y-127980000D02*
X132061000Y-128654000D01*
X132101000Y-125394000D02*
X132101000Y-128606000D01*
X132141000Y-125444000D02*
X132141000Y-128556000D01*
X132181000Y-125496000D02*
X132181000Y-128504000D01*
X132221000Y-125552000D02*
X132221000Y-128448000D01*
X132261000Y-125610000D02*
X132261000Y-128390000D01*
X132301000Y-125673000D02*
X132301000Y-128327000D01*
X132341000Y-125739000D02*
X132341000Y-128261000D01*
X132381000Y-125811000D02*
X132381000Y-128189000D01*
X132421000Y-125888000D02*
X132421000Y-128112000D01*
X132461000Y-125972000D02*
X132461000Y-128028000D01*
X132501000Y-126066000D02*
X132501000Y-127934000D01*
X132541000Y-126171000D02*
X132541000Y-127829000D01*
X132581000Y-126293000D02*
X132581000Y-127707000D01*
X132621000Y-126441000D02*
X132621000Y-127559000D01*
X132661000Y-126646000D02*
X132661000Y-127354000D01*
X126900000Y-127000000D02*
X128100000Y-127000000D01*
X127500000Y-126350000D02*
X127500000Y-127650000D01*
X131350000Y-56410000D02*
X131350000Y-53590000D01*
X131350000Y-53590000D02*
X126030000Y-53590000D01*
X126030000Y-53590000D02*
X126030000Y-56410000D01*
X126030000Y-56410000D02*
X131350000Y-56410000D01*
X131420000Y-55000000D02*
X131350000Y-55000000D01*
X125960000Y-55000000D02*
X126030000Y-55000000D01*
X130510000Y-56410000D02*
X130510000Y-53590000D01*
D11*
X121000000Y-50100000D02*
X119500000Y-50100000D01*
X133000000Y-50100000D02*
X134500000Y-50100000D01*
X121000000Y-47600000D02*
X133000000Y-47600000D01*
X133000000Y-47600000D02*
X133000000Y-52600000D01*
X133000000Y-52600000D02*
X121000000Y-52600000D01*
X121000000Y-52600000D02*
X121000000Y-47600000D01*
D14*
X132030000Y-132150000D02*
X128430000Y-132150000D01*
X132068478Y-132161522D02*
G75*
G02X130230000Y-136600000I-1838478J-1838478D01*
G01*
X128391522Y-132161522D02*
G75*
G03X130230000Y-136600000I1838478J-1838478D01*
G01*
X125030000Y-132150000D02*
X121430000Y-132150000D01*
X125068478Y-132161522D02*
G75*
G02X123230000Y-136600000I-1838478J-1838478D01*
G01*
X121391522Y-132161522D02*
G75*
G03X123230000Y-136600000I1838478J-1838478D01*
G01*
X133690000Y-132630000D02*
X136310000Y-132630000D01*
X136310000Y-132630000D02*
X136310000Y-126210000D01*
X136310000Y-126210000D02*
X133690000Y-126210000D01*
X133690000Y-126210000D02*
X133690000Y-132630000D01*
X135000000Y-133520000D02*
X135000000Y-132630000D01*
X135000000Y-125320000D02*
X135000000Y-126210000D01*
X117690000Y-132630000D02*
X120310000Y-132630000D01*
X120310000Y-132630000D02*
X120310000Y-126210000D01*
X120310000Y-126210000D02*
X117690000Y-126210000D01*
X117690000Y-126210000D02*
X117690000Y-132630000D01*
X119000000Y-133520000D02*
X119000000Y-132630000D01*
X119000000Y-125320000D02*
X119000000Y-126210000D01*
D13*
X118000000Y-58000000D02*
X118000000Y-53750000D01*
D11*
X118000000Y-53750000D02*
X122000000Y-53750000D01*
X122000000Y-53750000D02*
X122000000Y-62250000D01*
X122000000Y-62250000D02*
X118000000Y-62250000D01*
X118000000Y-62250000D02*
X118000000Y-58000000D01*
D13*
X127000000Y-143000000D02*
X122750000Y-143000000D01*
D11*
X122750000Y-143000000D02*
X122750000Y-139000000D01*
X122750000Y-139000000D02*
X131250000Y-139000000D01*
X131250000Y-139000000D02*
X131250000Y-143000000D01*
X131250000Y-143000000D02*
X127000000Y-143000000D01*
D13*
X132200000Y-38050000D02*
X136700000Y-38050000D01*
X136700000Y-38050000D02*
X136700000Y-43950000D01*
X136700000Y-43950000D02*
X132200000Y-43950000D01*
X132200000Y-43950000D02*
X132200000Y-38050000D01*
X136700000Y-40500000D02*
X136200000Y-40500000D01*
X136200000Y-40500000D02*
X136200000Y-38550000D01*
X136200000Y-38550000D02*
X132700000Y-38550000D01*
X132700000Y-38550000D02*
X132700000Y-43450000D01*
X132700000Y-43450000D02*
X136200000Y-43450000D01*
X136200000Y-43450000D02*
X136200000Y-41500000D01*
X136200000Y-41500000D02*
X136700000Y-41500000D01*
X135500000Y-38050000D02*
X135500000Y-38550000D01*
X134200000Y-38050000D02*
X134200000Y-38550000D01*
X135500000Y-43450000D02*
X135500000Y-43950000D01*
X134200000Y-43450000D02*
X134200000Y-43950000D01*
X136700000Y-39700000D02*
X136900000Y-39700000D01*
X136900000Y-39700000D02*
X136900000Y-39400000D01*
X136900000Y-39400000D02*
X136700000Y-39400000D01*
X136800000Y-39700000D02*
X136800000Y-39400000D01*
X132700000Y-40900000D02*
X133200000Y-40900000D01*
X133200000Y-40900000D02*
X133200000Y-41100000D01*
X133200000Y-41100000D02*
X132700000Y-41100000D01*
X132700000Y-41000000D02*
X133200000Y-41000000D01*
D14*
X120310000Y-138870000D02*
X117690000Y-138870000D01*
X117690000Y-138870000D02*
X117690000Y-145290000D01*
X117690000Y-145290000D02*
X120310000Y-145290000D01*
X120310000Y-145290000D02*
X120310000Y-138870000D01*
X119000000Y-137980000D02*
X119000000Y-138870000D01*
X119000000Y-146180000D02*
X119000000Y-145290000D01*
X136310000Y-138870000D02*
X133690000Y-138870000D01*
X133690000Y-138870000D02*
X133690000Y-145290000D01*
X133690000Y-145290000D02*
X136310000Y-145290000D01*
X136310000Y-145290000D02*
X136310000Y-138870000D01*
X135000000Y-137980000D02*
X135000000Y-138870000D01*
X135000000Y-146180000D02*
X135000000Y-145290000D01*
D13*
X131079216Y-151000000D02*
G75*
G03X131079216Y-151000000I-4079216J0D01*
G01*
X126700000Y-60500000D02*
X124000000Y-60500000D01*
X124000000Y-60500000D02*
X124000000Y-59600000D01*
X124000000Y-59600000D02*
X124400000Y-58800000D01*
X124400000Y-58800000D02*
X129000000Y-58800000D01*
X129000000Y-58800000D02*
X129300000Y-59600000D01*
X129300000Y-59600000D02*
X129300000Y-60500000D01*
X129300000Y-60500000D02*
X126700000Y-60500000D01*
X126928571Y-95785714D02*
X126976190Y-95642857D01*
X127023810Y-95595238D01*
X127119048Y-95547619D01*
X127261905Y-95547619D01*
X127357143Y-95595238D01*
X127404762Y-95642857D01*
X127452381Y-95738095D01*
X127452381Y-96119048D01*
X126452381Y-96119048D01*
X126452381Y-95785714D01*
X126500000Y-95690476D01*
X126547619Y-95642857D01*
X126642857Y-95595238D01*
X126738095Y-95595238D01*
X126833333Y-95642857D01*
X126880952Y-95690476D01*
X126928571Y-95785714D01*
X126928571Y-96119048D01*
X126452381Y-95261905D02*
X126452381Y-94690476D01*
X127452381Y-94976191D02*
X126452381Y-94976191D01*
X127452381Y-93833333D02*
X127452381Y-94404762D01*
X127452381Y-94119048D02*
X126452381Y-94119048D01*
X126595238Y-94214286D01*
X126690476Y-94309524D01*
X126738095Y-94404762D01*
X135333334Y-57357143D02*
X135285715Y-57404762D01*
X135142858Y-57452381D01*
X135047620Y-57452381D01*
X134904762Y-57404762D01*
X134809524Y-57309524D01*
X134761905Y-57214286D01*
X134714286Y-57023810D01*
X134714286Y-56880952D01*
X134761905Y-56690476D01*
X134809524Y-56595238D01*
X134904762Y-56500000D01*
X135047620Y-56452381D01*
X135142858Y-56452381D01*
X135285715Y-56500000D01*
X135333334Y-56547619D01*
X136285715Y-57452381D02*
X135714286Y-57452381D01*
X136000000Y-57452381D02*
X136000000Y-56452381D01*
X135904762Y-56595238D01*
X135809524Y-56690476D01*
X135714286Y-56738095D01*
X125133334Y-130457143D02*
X125085715Y-130504762D01*
X124942858Y-130552381D01*
X124847620Y-130552381D01*
X124704762Y-130504762D01*
X124609524Y-130409524D01*
X124561905Y-130314286D01*
X124514286Y-130123810D01*
X124514286Y-129980952D01*
X124561905Y-129790476D01*
X124609524Y-129695238D01*
X124704762Y-129600000D01*
X124847620Y-129552381D01*
X124942858Y-129552381D01*
X125085715Y-129600000D01*
X125133334Y-129647619D01*
X125514286Y-129647619D02*
X125561905Y-129600000D01*
X125657143Y-129552381D01*
X125895239Y-129552381D01*
X125990477Y-129600000D01*
X126038096Y-129647619D01*
X126085715Y-129742857D01*
X126085715Y-129838095D01*
X126038096Y-129980952D01*
X125466667Y-130552381D01*
X126085715Y-130552381D01*
X127833334Y-130457143D02*
X127785715Y-130504762D01*
X127642858Y-130552381D01*
X127547620Y-130552381D01*
X127404762Y-130504762D01*
X127309524Y-130409524D01*
X127261905Y-130314286D01*
X127214286Y-130123810D01*
X127214286Y-129980952D01*
X127261905Y-129790476D01*
X127309524Y-129695238D01*
X127404762Y-129600000D01*
X127547620Y-129552381D01*
X127642858Y-129552381D01*
X127785715Y-129600000D01*
X127833334Y-129647619D01*
X128166667Y-129552381D02*
X128785715Y-129552381D01*
X128452381Y-129933333D01*
X128595239Y-129933333D01*
X128690477Y-129980952D01*
X128738096Y-130028571D01*
X128785715Y-130123810D01*
X128785715Y-130361905D01*
X128738096Y-130457143D01*
X128690477Y-130504762D01*
X128595239Y-130552381D01*
X128309524Y-130552381D01*
X128214286Y-130504762D01*
X128166667Y-130457143D01*
X127951905Y-57862381D02*
X127951905Y-56862381D01*
X128190000Y-56862381D01*
X128332858Y-56910000D01*
X128428096Y-57005238D01*
X128475715Y-57100476D01*
X128523334Y-57290952D01*
X128523334Y-57433810D01*
X128475715Y-57624286D01*
X128428096Y-57719524D01*
X128332858Y-57814762D01*
X128190000Y-57862381D01*
X127951905Y-57862381D01*
X129475715Y-57862381D02*
X128904286Y-57862381D01*
X129190000Y-57862381D02*
X129190000Y-56862381D01*
X129094762Y-57005238D01*
X128999524Y-57100476D01*
X128904286Y-57148095D01*
X122333334Y-47052381D02*
X121857143Y-47052381D01*
X121857143Y-46052381D01*
X123190477Y-47052381D02*
X122619048Y-47052381D01*
X122904762Y-47052381D02*
X122904762Y-46052381D01*
X122809524Y-46195238D01*
X122714286Y-46290476D01*
X122619048Y-46338095D01*
X130134762Y-138103619D02*
X130039524Y-138056000D01*
X129944286Y-137960762D01*
X129801429Y-137817905D01*
X129706190Y-137770286D01*
X129610952Y-137770286D01*
X129658571Y-138008381D02*
X129563333Y-137960762D01*
X129468095Y-137865524D01*
X129420476Y-137675048D01*
X129420476Y-137341714D01*
X129468095Y-137151238D01*
X129563333Y-137056000D01*
X129658571Y-137008381D01*
X129849048Y-137008381D01*
X129944286Y-137056000D01*
X130039524Y-137151238D01*
X130087143Y-137341714D01*
X130087143Y-137675048D01*
X130039524Y-137865524D01*
X129944286Y-137960762D01*
X129849048Y-138008381D01*
X129658571Y-138008381D01*
X131039524Y-138008381D02*
X130468095Y-138008381D01*
X130753809Y-138008381D02*
X130753809Y-137008381D01*
X130658571Y-137151238D01*
X130563333Y-137246476D01*
X130468095Y-137294095D01*
X123134762Y-138103619D02*
X123039524Y-138056000D01*
X122944286Y-137960762D01*
X122801429Y-137817905D01*
X122706190Y-137770286D01*
X122610952Y-137770286D01*
X122658571Y-138008381D02*
X122563333Y-137960762D01*
X122468095Y-137865524D01*
X122420476Y-137675048D01*
X122420476Y-137341714D01*
X122468095Y-137151238D01*
X122563333Y-137056000D01*
X122658571Y-137008381D01*
X122849048Y-137008381D01*
X122944286Y-137056000D01*
X123039524Y-137151238D01*
X123087143Y-137341714D01*
X123087143Y-137675048D01*
X123039524Y-137865524D01*
X122944286Y-137960762D01*
X122849048Y-138008381D01*
X122658571Y-138008381D01*
X123468095Y-137103619D02*
X123515714Y-137056000D01*
X123610952Y-137008381D01*
X123849048Y-137008381D01*
X123944286Y-137056000D01*
X123991905Y-137103619D01*
X124039524Y-137198857D01*
X124039524Y-137294095D01*
X123991905Y-137436952D01*
X123420476Y-138008381D01*
X124039524Y-138008381D01*
X132433334Y-130552381D02*
X132100000Y-130076190D01*
X131861905Y-130552381D02*
X131861905Y-129552381D01*
X132242858Y-129552381D01*
X132338096Y-129600000D01*
X132385715Y-129647619D01*
X132433334Y-129742857D01*
X132433334Y-129885714D01*
X132385715Y-129980952D01*
X132338096Y-130028571D01*
X132242858Y-130076190D01*
X131861905Y-130076190D01*
X133385715Y-130552381D02*
X132814286Y-130552381D01*
X133100000Y-130552381D02*
X133100000Y-129552381D01*
X133004762Y-129695238D01*
X132909524Y-129790476D01*
X132814286Y-129838095D01*
X121133334Y-130552381D02*
X120800000Y-130076190D01*
X120561905Y-130552381D02*
X120561905Y-129552381D01*
X120942858Y-129552381D01*
X121038096Y-129600000D01*
X121085715Y-129647619D01*
X121133334Y-129742857D01*
X121133334Y-129885714D01*
X121085715Y-129980952D01*
X121038096Y-130028571D01*
X120942858Y-130076190D01*
X120561905Y-130076190D01*
X121514286Y-129647619D02*
X121561905Y-129600000D01*
X121657143Y-129552381D01*
X121895239Y-129552381D01*
X121990477Y-129600000D01*
X122038096Y-129647619D01*
X122085715Y-129742857D01*
X122085715Y-129838095D01*
X122038096Y-129980952D01*
X121466667Y-130552381D01*
X122085715Y-130552381D01*
X122238095Y-57452381D02*
X122238095Y-58261905D01*
X122285714Y-58357143D01*
X122333333Y-58404762D01*
X122428571Y-58452381D01*
X122619048Y-58452381D01*
X122714286Y-58404762D01*
X122761905Y-58357143D01*
X122809524Y-58261905D01*
X122809524Y-57452381D01*
X123809524Y-58452381D02*
X123238095Y-58452381D01*
X123523809Y-58452381D02*
X123523809Y-57452381D01*
X123428571Y-57595238D01*
X123333333Y-57690476D01*
X123238095Y-57738095D01*
X126238095Y-143452381D02*
X126238095Y-144261905D01*
X126285714Y-144357143D01*
X126333333Y-144404762D01*
X126428571Y-144452381D01*
X126619048Y-144452381D01*
X126714286Y-144404762D01*
X126761905Y-144357143D01*
X126809524Y-144261905D01*
X126809524Y-143452381D01*
X127190476Y-143452381D02*
X127809524Y-143452381D01*
X127476190Y-143833333D01*
X127619048Y-143833333D01*
X127714286Y-143880952D01*
X127761905Y-143928571D01*
X127809524Y-144023810D01*
X127809524Y-144261905D01*
X127761905Y-144357143D01*
X127714286Y-144404762D01*
X127619048Y-144452381D01*
X127333333Y-144452381D01*
X127238095Y-144404762D01*
X127190476Y-144357143D01*
X129104761Y-36904762D02*
X129247618Y-36952381D01*
X129485714Y-36952381D01*
X129580952Y-36904762D01*
X129628571Y-36857143D01*
X129676190Y-36761905D01*
X129676190Y-36666667D01*
X129628571Y-36571429D01*
X129580952Y-36523810D01*
X129485714Y-36476190D01*
X129295237Y-36428571D01*
X129199999Y-36380952D01*
X129152380Y-36333333D01*
X129104761Y-36238095D01*
X129104761Y-36142857D01*
X129152380Y-36047619D01*
X129199999Y-36000000D01*
X129295237Y-35952381D01*
X129533333Y-35952381D01*
X129676190Y-36000000D01*
X130247618Y-36952381D02*
X130152380Y-36904762D01*
X130104761Y-36857143D01*
X130057142Y-36761905D01*
X130057142Y-36476190D01*
X130104761Y-36380952D01*
X130152380Y-36333333D01*
X130247618Y-36285714D01*
X130390476Y-36285714D01*
X130485714Y-36333333D01*
X130533333Y-36380952D01*
X130580952Y-36476190D01*
X130580952Y-36761905D01*
X130533333Y-36857143D01*
X130485714Y-36904762D01*
X130390476Y-36952381D01*
X130247618Y-36952381D01*
X131152380Y-36952381D02*
X131057142Y-36904762D01*
X131009523Y-36809524D01*
X131009523Y-35952381D01*
X131961905Y-36952381D02*
X131961905Y-36428571D01*
X131914286Y-36333333D01*
X131819048Y-36285714D01*
X131628571Y-36285714D01*
X131533333Y-36333333D01*
X131961905Y-36904762D02*
X131866667Y-36952381D01*
X131628571Y-36952381D01*
X131533333Y-36904762D01*
X131485714Y-36809524D01*
X131485714Y-36714286D01*
X131533333Y-36619048D01*
X131628571Y-36571429D01*
X131866667Y-36571429D01*
X131961905Y-36523810D01*
X132438095Y-36952381D02*
X132438095Y-36285714D01*
X132438095Y-36476190D02*
X132485714Y-36380952D01*
X132533333Y-36333333D01*
X132628571Y-36285714D01*
X132723810Y-36285714D01*
X134390477Y-36857143D02*
X134342858Y-36904762D01*
X134200001Y-36952381D01*
X134104763Y-36952381D01*
X133961905Y-36904762D01*
X133866667Y-36809524D01*
X133819048Y-36714286D01*
X133771429Y-36523810D01*
X133771429Y-36380952D01*
X133819048Y-36190476D01*
X133866667Y-36095238D01*
X133961905Y-36000000D01*
X134104763Y-35952381D01*
X134200001Y-35952381D01*
X134342858Y-36000000D01*
X134390477Y-36047619D01*
X135200001Y-36904762D02*
X135104763Y-36952381D01*
X134914286Y-36952381D01*
X134819048Y-36904762D01*
X134771429Y-36809524D01*
X134771429Y-36428571D01*
X134819048Y-36333333D01*
X134914286Y-36285714D01*
X135104763Y-36285714D01*
X135200001Y-36333333D01*
X135247620Y-36428571D01*
X135247620Y-36523810D01*
X134771429Y-36619048D01*
X135819048Y-36952381D02*
X135723810Y-36904762D01*
X135676191Y-36809524D01*
X135676191Y-35952381D01*
X136342858Y-36952381D02*
X136247620Y-36904762D01*
X136200001Y-36809524D01*
X136200001Y-35952381D01*
X121533334Y-144852381D02*
X121200000Y-144376190D01*
X120961905Y-144852381D02*
X120961905Y-143852381D01*
X121342858Y-143852381D01*
X121438096Y-143900000D01*
X121485715Y-143947619D01*
X121533334Y-144042857D01*
X121533334Y-144185714D01*
X121485715Y-144280952D01*
X121438096Y-144328571D01*
X121342858Y-144376190D01*
X120961905Y-144376190D01*
X121866667Y-143852381D02*
X122485715Y-143852381D01*
X122152381Y-144233333D01*
X122295239Y-144233333D01*
X122390477Y-144280952D01*
X122438096Y-144328571D01*
X122485715Y-144423810D01*
X122485715Y-144661905D01*
X122438096Y-144757143D01*
X122390477Y-144804762D01*
X122295239Y-144852381D01*
X122009524Y-144852381D01*
X121914286Y-144804762D01*
X121866667Y-144757143D01*
X132033334Y-144852381D02*
X131700000Y-144376190D01*
X131461905Y-144852381D02*
X131461905Y-143852381D01*
X131842858Y-143852381D01*
X131938096Y-143900000D01*
X131985715Y-143947619D01*
X132033334Y-144042857D01*
X132033334Y-144185714D01*
X131985715Y-144280952D01*
X131938096Y-144328571D01*
X131842858Y-144376190D01*
X131461905Y-144376190D01*
X132890477Y-144185714D02*
X132890477Y-144852381D01*
X132652381Y-143804762D02*
X132414286Y-144519048D01*
X133033334Y-144519048D01*
X126261905Y-146252381D02*
X126261905Y-145252381D01*
X126500000Y-145252381D01*
X126642858Y-145300000D01*
X126738096Y-145395238D01*
X126785715Y-145490476D01*
X126833334Y-145680952D01*
X126833334Y-145823810D01*
X126785715Y-146014286D01*
X126738096Y-146109524D01*
X126642858Y-146204762D01*
X126500000Y-146252381D01*
X126261905Y-146252381D01*
X127214286Y-145347619D02*
X127261905Y-145300000D01*
X127357143Y-145252381D01*
X127595239Y-145252381D01*
X127690477Y-145300000D01*
X127738096Y-145347619D01*
X127785715Y-145442857D01*
X127785715Y-145538095D01*
X127738096Y-145680952D01*
X127166667Y-146252381D01*
X127785715Y-146252381D01*
X125938095Y-60752381D02*
X125938095Y-61561905D01*
X125985714Y-61657143D01*
X126033333Y-61704762D01*
X126128571Y-61752381D01*
X126319048Y-61752381D01*
X126414286Y-61704762D01*
X126461905Y-61657143D01*
X126509524Y-61561905D01*
X126509524Y-60752381D01*
X126938095Y-60847619D02*
X126985714Y-60800000D01*
X127080952Y-60752381D01*
X127319048Y-60752381D01*
X127414286Y-60800000D01*
X127461905Y-60847619D01*
X127509524Y-60942857D01*
X127509524Y-61038095D01*
X127461905Y-61180952D01*
X126890476Y-61752381D01*
X127509524Y-61752381D01*
M02*
